<?xml version="1.0" encoding="UTF-8" standalone="no"?>
<!-- Created with Inkscape (http://www.inkscape.org/) -->

<svg
   width="54.664368"
   height="54.176689"
   viewBox="0 0 14.090468 13.964763"
   version="1.1"
   id="svg1"
   xml:space="preserve"
   xmlns="http://www.w3.org/2000/svg"
   xmlns:svg="http://www.w3.org/2000/svg"><defs
     id="defs1"><rect
       x="1622.7291"
       y="1123.17"
       width="1149.9919"
       height="643.72729"
       id="rect1" /><rect
       x="3248.655"
       y="1980.5128"
       width="1501.505"
       height="985.65051"
       id="rect128" /><rect
       x="3217.9495"
       y="2084.9119"
       width="1323.4124"
       height="782.99341"
       id="rect127" /><rect
       x="3233.3022"
       y="1891.4666"
       width="1286.5657"
       height="991.79169"
       id="rect126" /><rect
       x="2292.8037"
       y="2162.5308"
       width="1567.6176"
       height="1116.0048"
       id="rect125" /><rect
       x="3725.8059"
       y="2466.5007"
       width="1081.2653"
       height="898.88324"
       id="rect124" /><rect
       x="1470.7994"
       y="322.40906"
       width="1578.269"
       height="546.56012"
       id="rect121" /><rect
       x="1068.8286"
       y="61.326229"
       width="870.31677"
       height="896.49469"
       id="rect42" /><rect
       x="1046.5266"
       y="116.83313"
       width="554.33594"
       height="323.15546"
       id="rect41" /><rect
       x="1056.4698"
       y="27.343924"
       width="522.02039"
       height="350.49939"
       id="rect40" /><rect
       x="35.637646"
       y="71.275291"
       width="64.939713"
       height="62.563869"
       id="rect39" /><rect
       x="1068.8286"
       y="61.326229"
       width="1056.2015"
       height="1166.2666"
       id="rect42-2" /><clipPath
       clipPathUnits="userSpaceOnUse"
       id="clipPath135"><path
         id="path136"
         style="fill:#ff0000;fill-opacity:1;fill-rule:nonzero;stroke:none;stroke-width:1"
         d="m 739.43625,232.29376 c -3.71001,0 -7.42113,3.67117 -7.42278,11.01686 -3e-5,0.14656 2e-4,0.29341 0,0.44 -2.1e-4,0.11342 0,0.22691 -0.003,0.34033 0,0.0948 -0.003,0.2152 -0.003,0.29503 0.01,-0.12223 0.0106,-0.10442 0.006,-0.0357 -0.0911,0.66928 -0.20389,1.33676 -0.19835,2.01527 7e-5,0.4226 5e-5,0.84508 0,1.26768 0,0.28328 0,0.56705 0.004,0.85031 0.005,0.38912 0.0134,0.77824 0.0413,1.16648 0.0506,0.63034 0.13494,1.25804 0.29552,1.8708 0.0178,0.0691 0.0346,0.13852 0.0529,0.20742 0.10494,0.56904 0.24261,1.13289 0.44957,1.67345 0.047,0.23286 0.10354,0.46415 0.16463,0.69374 0.0693,0.39075 0.13788,0.76064 0.0811,0.44153 0.016,0.0894 0.0314,0.17894 0.0478,0.26833 0.006,0.0314 0.0165,0.11403 0.0206,0.12285 v 0 0 0 0 c 0,0 0,-0.003 0,-0.007 1.1e-4,-0.007 0,-0.016 0,-0.0258 0.01,0.0873 0.0168,0.16255 0.0262,0.24266 0,0.1611 -2.4e-4,0.32025 -0.005,0.40577 -0.003,0.14909 -0.006,0.33079 -0.008,0.46668 0.0483,-0.32372 -0.0653,0.44642 -0.078,0.51001 -0.0584,0.41103 -0.14953,1.20554 -0.13543,1.39754 -0.0592,0.45944 -0.142,0.91617 -0.17672,1.37844 -0.11223,0.56997 -0.19469,1.14625 -0.1923,1.72882 -0.11204,0.50109 -0.19631,1.00943 -0.21043,1.52444 -0.0201,0.38623 -0.0539,0.77172 -0.0932,1.1564 -0.12586,1.12053 -0.30578,2.23365 -0.47374,3.3484 -0.19577,1.29784 -0.34814,2.60369 -0.58551,3.89416 -2.65764,14.44867 11.54481,17.4978 14.51078,3.10927 v 0 c 0.3261,-1.58192 0.50635,-3.18946 0.74814,-4.78574 0.20007,-1.29121 0.39479,-2.58348 0.54473,-3.88155 0.0546,-0.49493 0.0978,-0.99102 0.13239,-1.48768 0.12658,-0.55473 0.19169,-1.11993 0.2351,-1.68655 0.01,-0.14285 0.0168,-0.28586 0.0217,-0.42894 0.0693,-0.39657 0.11414,-0.79768 0.14953,-1.19919 0.003,-0.003 0.006,-0.033 0.0121,-0.0715 0.0188,-0.0688 0.0517,-0.14396 0.0272,-0.19332 0.0302,-0.21139 0.0376,-0.27297 0.066,-0.48986 0.0116,-0.099 0.025,-0.19783 0.0347,-0.29702 0.0327,-0.32937 0.0464,-0.51349 0.0639,-0.83121 0.005,-0.0295 0.01,-0.0591 0.0147,-0.0886 0.0222,-0.0928 0.0595,-0.20678 0.0378,-0.24016 0.053,-0.35316 0.0955,-0.70753 0.12937,-1.06327 0.0441,-0.52205 0.0565,-1.04611 0.0639,-1.56973 0.0255,-0.66745 -0.01,-1.33021 -0.0488,-1.99666 -0.0694,-0.60796 -0.16337,-1.21151 -0.27037,-1.81391 -0.085,-0.54179 -0.19381,-1.07941 -0.33932,-1.608 -0.003,-0.006 -0.003,-0.0124 -0.004,-0.0186 -0.0335,-0.14556 -0.0809,-0.35314 -0.14499,-0.63987 -0.0416,-0.15311 -0.0842,-0.30594 -0.12737,-0.45864 -0.01,-0.0345 -0.0386,-0.13795 -0.0297,-0.10321 0.11133,0.43397 0.21758,0.73442 -0.0559,-0.12635 -0.0392,-0.17474 -0.0971,-0.41237 -0.15306,-0.63384 0,-0.0282 -0.003,-0.0505 -0.003,-0.0579 -0.003,-0.22492 -0.003,-0.44966 -0.003,-0.67461 -2.4e-4,-0.23405 0,-0.46826 0,-0.70231 0.0193,-0.12633 0.0556,-0.50207 0.0629,-0.5553 0.0577,-0.42384 0.0916,-0.84971 0.11377,-1.27672 0.0119,-0.27854 0.0157,-0.55747 0.0186,-0.83624 0.003,-0.15414 0.003,-0.30849 0.003,-0.46266 2.3e-4,-0.15484 0,-0.30983 0,-0.46467 0.003,-7.34553 -3.70772,-11.0191 -7.41776,-11.01987 z m 7.07439,15.4814 c -0.0124,-0.0421 0.0255,0.0808 0.0393,0.12586 0,0 2.3e-4,0.003 0,0.003 0.006,0.0268 0.0118,0.0534 0.0175,0.0801 -0.024,-0.09 -0.0441,-0.16314 -0.0574,-0.20843 z m 0.0448,0.39569 c 0.0162,0.0407 0.0139,0.0361 0.003,0.008 0,-0.003 -0.003,-0.005 -0.003,-0.008 z m 0.72444,12.60826 v 0 0 0 c 0.004,0.0124 -0.003,0.15357 -0.0378,0.52006 -0.003,-0.22861 0.0268,-0.50168 0.0362,-0.52006 z" /></clipPath><clipPath
       clipPathUnits="userSpaceOnUse"
       id="clipPath136"><path
         id="path137"
         style="fill:#ff0000;fill-opacity:1;fill-rule:nonzero;stroke:none;stroke-width:1"
         d="m 739.43625,232.29376 c -3.71001,0 -7.42113,3.67117 -7.42278,11.01686 -3e-5,0.14656 2e-4,0.29341 0,0.44 -2.1e-4,0.11342 0,0.22691 -0.003,0.34033 0,0.0948 -0.003,0.2152 -0.003,0.29503 0.01,-0.12223 0.0106,-0.10442 0.006,-0.0357 -0.0911,0.66928 -0.20389,1.33676 -0.19835,2.01527 7e-5,0.4226 5e-5,0.84508 0,1.26768 0,0.28328 0,0.56705 0.004,0.85031 0.005,0.38912 0.0134,0.77824 0.0413,1.16648 0.0506,0.63034 0.13494,1.25804 0.29552,1.8708 0.0178,0.0691 0.0346,0.13852 0.0529,0.20742 0.10494,0.56904 0.24261,1.13289 0.44957,1.67345 0.047,0.23286 0.10354,0.46415 0.16463,0.69374 0.0693,0.39075 0.13788,0.76064 0.0811,0.44153 0.016,0.0894 0.0314,0.17894 0.0478,0.26833 0.006,0.0314 0.0165,0.11403 0.0206,0.12285 v 0 0 0 0 c 0,0 0,-0.003 0,-0.007 1.1e-4,-0.007 0,-0.016 0,-0.0258 0.01,0.0873 0.0168,0.16255 0.0262,0.24266 0,0.1611 -2.4e-4,0.32025 -0.005,0.40577 -0.003,0.14909 -0.006,0.33079 -0.008,0.46668 0.0483,-0.32372 -0.0653,0.44642 -0.078,0.51001 -0.0584,0.41103 -0.14953,1.20554 -0.13543,1.39754 -0.0592,0.45944 -0.142,0.91617 -0.17672,1.37844 -0.11223,0.56997 -0.19469,1.14625 -0.1923,1.72882 -0.11204,0.50109 -0.19631,1.00943 -0.21043,1.52444 -0.0201,0.38623 -0.0539,0.77172 -0.0932,1.1564 -0.12586,1.12053 -0.30578,2.23365 -0.47374,3.3484 -0.19577,1.29784 -0.34814,2.60369 -0.58551,3.89416 -2.65764,14.44867 11.54481,17.4978 14.51078,3.10927 v 0 c 0.3261,-1.58192 0.50635,-3.18946 0.74814,-4.78574 0.20007,-1.29121 0.39479,-2.58348 0.54473,-3.88155 0.0546,-0.49493 0.0978,-0.99102 0.13239,-1.48768 0.12658,-0.55473 0.19169,-1.11993 0.2351,-1.68655 0.01,-0.14285 0.0168,-0.28586 0.0217,-0.42894 0.0693,-0.39657 0.11414,-0.79768 0.14953,-1.19919 0.003,-0.003 0.006,-0.033 0.0121,-0.0715 0.0188,-0.0688 0.0517,-0.14396 0.0272,-0.19332 0.0302,-0.21139 0.0376,-0.27297 0.066,-0.48986 0.0116,-0.099 0.025,-0.19783 0.0347,-0.29702 0.0327,-0.32937 0.0464,-0.51349 0.0639,-0.83121 0.005,-0.0295 0.01,-0.0591 0.0147,-0.0886 0.0222,-0.0928 0.0595,-0.20678 0.0378,-0.24016 0.053,-0.35316 0.0955,-0.70753 0.12937,-1.06327 0.0441,-0.52205 0.0565,-1.04611 0.0639,-1.56973 0.0255,-0.66745 -0.01,-1.33021 -0.0488,-1.99666 -0.0694,-0.60796 -0.16337,-1.21151 -0.27037,-1.81391 -0.085,-0.54179 -0.19381,-1.07941 -0.33932,-1.608 -0.003,-0.006 -0.003,-0.0124 -0.004,-0.0186 -0.0335,-0.14556 -0.0809,-0.35314 -0.14499,-0.63987 -0.0416,-0.15311 -0.0842,-0.30594 -0.12737,-0.45864 -0.01,-0.0345 -0.0386,-0.13795 -0.0297,-0.10321 0.11133,0.43397 0.21758,0.73442 -0.0559,-0.12635 -0.0392,-0.17474 -0.0971,-0.41237 -0.15306,-0.63384 0,-0.0282 -0.003,-0.0505 -0.003,-0.0579 -0.003,-0.22492 -0.003,-0.44966 -0.003,-0.67461 -2.4e-4,-0.23405 0,-0.46826 0,-0.70231 0.0193,-0.12633 0.0556,-0.50207 0.0629,-0.5553 0.0577,-0.42384 0.0916,-0.84971 0.11377,-1.27672 0.0119,-0.27854 0.0157,-0.55747 0.0186,-0.83624 0.003,-0.15414 0.003,-0.30849 0.003,-0.46266 2.3e-4,-0.15484 0,-0.30983 0,-0.46467 0.003,-7.34553 -3.70772,-11.0191 -7.41776,-11.01987 z m 7.07439,15.4814 c -0.0124,-0.0421 0.0255,0.0808 0.0393,0.12586 0,0 2.3e-4,0.003 0,0.003 0.006,0.0268 0.0118,0.0534 0.0175,0.0801 -0.024,-0.09 -0.0441,-0.16314 -0.0574,-0.20843 z m 0.0448,0.39569 c 0.0162,0.0407 0.0139,0.0361 0.003,0.008 0,-0.003 -0.003,-0.005 -0.003,-0.008 z m 0.72444,12.60826 v 0 0 0 c 0.004,0.0124 -0.003,0.15357 -0.0378,0.52006 -0.003,-0.22861 0.0268,-0.50168 0.0362,-0.52006 z" /></clipPath></defs><g
     id="layer10"
     style="display:inline"
     transform="translate(-1878.0576,-233.86908)"><path
       id="rect16"
       style="fill:#dbe3e2;fill-opacity:1;fill-rule:nonzero;stroke:#000000;stroke-width:1.03105;stroke-linecap:round;stroke-linejoin:round;stroke-dasharray:none;stroke-opacity:1;paint-order:markers stroke fill"
       d="m 1889.1621,234.39258 c -3.0997,0.11665 -6.2134,-0.038 -9.3086,0.13086 -1.2726,0.39488 -1.364,1.92267 -1.236,3.03164 0.048,2.83262 -0.1077,5.67625 0.086,8.50156 0.399,1.26374 1.9172,1.34491 3.0184,1.21521 2.8833,-0.0291 5.7779,0.1131 8.6535,-0.0883 1.2499,-0.39923 1.3422,-1.89845 1.2111,-2.99296 -0.03,-2.84435 0.1129,-5.69941 -0.092,-8.53633 -0.2938,-0.98919 -1.4034,-1.32594 -2.332,-1.26172 z" /><g
       id="g5-2-2-0"
       style="display:inline;fill:#0b1728;fill-opacity:1;fill-rule:nonzero"
       transform="matrix(0.04514631,0,0,0.04514631,1859.5256,214.94669)"><path
         id="path61-4-7-9-1"
         style="display:inline;fill:#0b1728;fill-opacity:1;fill-rule:nonzero;stroke-width:0.309316;stroke-dasharray:none;paint-order:markers stroke fill"
         d="m 568.02734,439.69336 c -7.14687,0.2725 -14.19695,2.25395 -20.56406,5.48503 -2.82532,1.39353 -5.42475,3.17828 -8.01412,4.95805 -2.2247,1.38517 -4.44509,3.02263 -7.08393,3.47489 -2.20575,-0.13601 -4.06513,-1.52772 -5.9076,-2.61546 -5.00145,-3.16991 -10.15088,-6.3702 -15.98406,-7.73438 -10.89187,-2.71535 -22.47529,-1.68538 -33.06236,1.82678 -12.5408,4.08606 -23.76517,11.5687 -33.26473,20.62657 -3.78027,3.74769 -6.94944,8.35856 -7.98524,13.65998 -0.89707,4.69909 0.415,9.64666 3.06411,13.57899 2.29381,3.37676 5.28672,6.22486 8.42696,8.80788 3.1929,2.54262 6.55615,4.86948 9.97464,7.09573 8.65989,5.35715 18.44348,8.45676 28.16016,11.27149 5.5196,1.54476 10.92678,3.45156 16.37719,5.21569 5.90832,1.84346 12.1028,2.85327 18.30106,2.62034 9.02775,-0.22347 17.9742,-2.95448 25.57876,-7.82784 6.94071,-4.14412 13.53822,-8.92999 20.93326,-12.26243 1.81889,-0.71437 4.01606,-0.9094 5.72094,0.20508 3.70763,2.07629 6.72369,5.13162 10.07707,7.7015 4.62183,3.65477 9.89189,6.7533 15.77034,7.76579 7.45133,1.35953 15.19946,-0.45848 21.7786,-4.04619 3.92056,-2.01141 7.29952,-4.93529 11.27723,-6.83874 1.00458,-0.42967 2.20064,-0.93865 3.23242,-0.27734 2.45637,1.33329 4.39838,3.40354 6.59977,5.09535 5.42314,4.38385 11.38059,8.31843 18.11674,10.33504 8.30375,2.58033 17.73036,2.00278 25.3364,-2.37282 4.71209,-2.78653 7.64388,-8.22753 7.47444,-13.68921 -0.31705,-8.19223 -3.85939,-15.95231 -8.75,-22.41719 -0.45055,-0.58801 -0.90056,-1.17698 -1.375,-1.7461 3.01087,-4.14097 4.90531,-8.95819 6.56836,-13.76367 1.6275,-5.03934 2.65593,-10.3427 2.47012,-15.64942 -0.42031,-3.84701 -2.49313,-7.47011 -5.62727,-9.74757 -2.72578,-2.01124 -6.21638,-2.93959 -9.58002,-2.5215 -3.62905,0.51881 -6.92466,2.42751 -9.66908,4.79935 -2.48387,2.01805 -4.78225,4.24733 -7.17383,6.37109 -2.4272,-3.66026 -5.64794,-6.85878 -9.60557,-8.82947 -6.23563,-3.23293 -13.82342,-3.46838 -20.35732,-0.98303 -5.63657,1.96985 -10.53912,5.44716 -15.57227,8.56641 -1.82324,1.01513 -3.65169,2.2099 -5.74804,2.54102 -1.99969,0.32003 -3.61202,-1.18928 -5.07911,-2.30608 -3.11762,-2.60027 -6.08464,-5.39583 -9.45319,-7.68095 -7.3977,-5.19575 -16.22481,-8.8297 -25.38177,-8.69266 z m 0.65039,27.55078 c 4.85098,0.36121 9.09968,3.15541 12.65817,6.28501 4.36669,3.77409 8.81124,7.63712 14.16019,9.95913 7.35424,3.23397 15.91597,2.87329 23.34531,0.0746 5.25726,-1.8514 9.74169,-5.23896 14.29337,-8.35582 1.26507,-0.81315 2.54649,-1.63454 3.96484,-2.15625 2.24434,2.85744 4.20685,5.98548 6.9862,8.37767 2.13773,1.93769 4.66143,3.46986 7.4181,4.34303 -0.26171,1.75282 -0.21898,3.54984 0.1289,5.28711 -4.58684,-3.09256 -9.72732,-5.60049 -15.28493,-6.22005 -4.73485,-0.62168 -9.56678,0.23809 -13.95725,2.0522 -5.01066,1.96667 -9.34346,5.22056 -13.99821,7.85476 -1.55145,0.78632 -3.15938,1.73191 -4.94125,1.77403 -2.10516,-0.0972 -3.49185,-1.852 -5.02383,-3.05775 -4.77304,-4.17638 -9.73294,-8.34564 -15.6572,-10.78783 -7.12604,-3.03055 -15.30479,-3.57903 -22.72717,-1.31653 -5.53695,1.65939 -10.42821,4.82956 -15.26192,7.90598 -5.7708,3.50586 -11.66781,6.80946 -17.66492,9.91082 -2.66493,1.25126 -5.62444,1.66336 -8.54378,1.68088 -4.08054,0.15439 -8.01903,-1.11611 -11.84685,-2.37096 -6.21052,-1.87766 -12.71149,-2.84693 -18.6766,-5.48715 -6.44479,-2.58551 -12.80412,-5.43447 -18.80671,-8.94035 -0.15136,-1.13752 -0.55979,-2.20033 -0.99219,-3.25586 7.04141,-5.09563 14.87809,-9.43489 23.49974,-11.06379 5.28068,-0.96422 11.05165,-0.9654 15.88886,1.64282 4.52348,2.45176 8.74723,5.49784 13.58298,7.34246 5.14259,2.12436 10.88504,2.68353 16.3507,1.67134 5.48006,-0.92281 10.54979,-3.36517 15.29961,-6.16445 4.17949,-2.36447 8.17246,-5.2233 12.81629,-6.62104 0.96916,-0.2627 1.98363,-0.42288 2.98955,-0.36398 z" /></g><g
       id="g15"
       transform="matrix(-1,0,0,1,3763.4338,4.9364188)"
       style="fill:#0b1728;fill-opacity:1;fill-rule:nonzero"><path
         id="path61-4-7-9-1-61"
         style="display:inline;fill:#0b1728;fill-opacity:1;fill-rule:nonzero;stroke-width:0.0139645;stroke-dasharray:none;paint-order:markers stroke fill"
         d="m 1878.6163,233.79157 c -0.3453,0.0132 -0.6852,0.11449 -0.9882,0.27902 -0.1832,0.0959 -0.339,0.23777 -0.5286,0.32209 -0.051,0.0228 -0.1089,0.0387 -0.1621,0.0142 -0.1201,-0.0443 -0.222,-0.12465 -0.332,-0.18835 -0.2047,-0.1293 -0.4262,-0.23856 -0.6658,-0.28362 -0.5068,-0.10822 -1.0394,-0.0402 -1.5224,0.13773 -0.5248,0.19127 -0.9952,0.51286 -1.3972,0.89744 -0.1701,0.16891 -0.3114,0.37724 -0.3577,0.61582 -0.039,0.21252 0.021,0.43574 0.1409,0.61306 0.1034,0.1514 0.238,0.27916 0.379,0.39517 0.144,0.11466 0.2957,0.21951 0.4498,0.31999 0.3917,0.24213 0.834,0.38238 1.2735,0.50949 0.2501,0.0702 0.4951,0.15658 0.7422,0.23646 0.2653,0.0822 0.5432,0.12715 0.8213,0.11669 0.4076,-0.0101 0.8115,-0.13342 1.1548,-0.3534 0.3134,-0.18703 0.6112,-0.40323 0.9451,-0.5536 0.082,-0.0321 0.1808,-0.0411 0.2577,0.009 0.166,0.0926 0.3009,0.22921 0.4508,0.34429 0.2088,0.16566 0.4466,0.30702 0.7125,0.35343 0.3341,0.0624 0.682,-0.0176 0.9781,-0.17681 0.1808,-0.0914 0.3357,-0.22625 0.5184,-0.31374 0.045,-0.0187 0.098,-0.0421 0.1437,-0.0135 0.1066,0.0562 0.1908,0.14534 0.2852,0.21891 0.2356,0.19167 0.4922,0.36551 0.7823,0.4627 0.3659,0.12577 0.7843,0.1179 1.1328,-0.0581 0.2142,-0.0993 0.3675,-0.31451 0.3938,-0.54884 0.016,-0.14613 -0.011,-0.29361 -0.046,-0.43507 -0.075,-0.27939 -0.2232,-0.53498 -0.4056,-0.75796 0.1356,-0.18686 0.2213,-0.404 0.2963,-0.62076 0.074,-0.2268 0.1187,-0.46539 0.1125,-0.70435 -0.017,-0.15208 -0.089,-0.29777 -0.2031,-0.40039 -0.1277,-0.1178 -0.307,-0.17782 -0.4798,-0.1567 -0.1613,0.0213 -0.3089,0.1048 -0.4315,0.20923 -0.1154,0.0936 -0.2225,0.19665 -0.3334,0.29548 -0.1103,-0.16686 -0.2576,-0.31211 -0.4382,-0.40104 -0.2806,-0.1438 -0.621,-0.15359 -0.9144,-0.042 -0.2543,0.0888 -0.4754,0.24566 -0.7024,0.3863 -0.084,0.0467 -0.1684,0.10283 -0.2657,0.11579 -0.091,0.0111 -0.1621,-0.0584 -0.2289,-0.10882 -0.1398,-0.11747 -0.2737,-0.24271 -0.4254,-0.34528 -0.3332,-0.23318 -0.7302,-0.39597 -1.1421,-0.38985 z m 0.029,1.24382 c 0.217,0.0161 0.4076,0.14039 0.5672,0.28019 0.1983,0.17116 0.3995,0.34702 0.6422,0.45273 0.3236,0.14267 0.6994,0.13081 1.0288,0.0137 0.229,-0.0775 0.4288,-0.21702 0.6246,-0.35526 0.072,-0.0483 0.1444,-0.0985 0.2261,-0.12926 0.1013,0.12902 0.19,0.27023 0.3155,0.37822 0.096,0.0876 0.2105,0.15653 0.3348,0.19616 -0.012,0.0791 -0.01,0.16012 0.01,0.23851 -0.2098,-0.14149 -0.4456,-0.25595 -0.7003,-0.28177 -0.2357,-0.0297 -0.4748,0.0246 -0.6887,0.12332 -0.2129,0.0941 -0.3978,0.23842 -0.6032,0.3462 -0.072,0.0333 -0.1536,0.0792 -0.2343,0.0485 -0.075,-0.0263 -0.1263,-0.0917 -0.1882,-0.13861 -0.2166,-0.18988 -0.4439,-0.37755 -0.7147,-0.48442 -0.3604,-0.14835 -0.779,-0.1536 -1.1396,-0.003 -0.2621,0.10357 -0.487,0.27689 -0.7311,0.41426 -0.2052,0.11949 -0.4127,0.23529 -0.6241,0.3435 -0.1196,0.0556 -0.2522,0.0737 -0.383,0.0746 -0.1828,0.007 -0.3596,-0.0493 -0.5311,-0.10598 -0.2551,-0.0779 -0.5211,-0.11969 -0.7701,-0.21757 -0.3167,-0.12633 -0.6309,-0.26229 -0.9257,-0.43475 -0.01,-0.0513 -0.025,-0.0994 -0.045,-0.14699 0.3206,-0.23203 0.6779,-0.42953 1.071,-0.50132 0.2384,-0.0424 0.4988,-0.0398 0.7157,0.0803 0.202,0.11119 0.392,0.24643 0.6088,0.32879 0.2312,0.0945 0.489,0.11937 0.7344,0.0737 0.258,-0.0431 0.4951,-0.1616 0.7179,-0.29415 0.1836,-0.10459 0.3603,-0.23007 0.5663,-0.28697 0.039,-0.009 0.08,-0.0148 0.12,-0.0124 z" /></g><g
       id="g16"
       style="display:inline;fill:#0b1728;fill-opacity:1;fill-rule:nonzero"
       transform="matrix(0.04514631,0,0,0.04514631,1859.8602,214.94669)"><path
         id="path15"
         style="display:inline;fill:#0b1728;fill-opacity:1;fill-rule:nonzero;stroke-width:0.309316;stroke-dasharray:none;paint-order:markers stroke fill"
         d="m 560.61719,613.82812 c -7.14681,0.27274 -14.19699,2.25391 -20.56407,5.48504 -2.86372,1.41188 -5.49092,3.23188 -8.11953,5.02864 -2.18482,1.3573 -4.36843,2.95136 -6.95507,3.40234 -2.14272,-0.10524 -3.9598,-1.44544 -5.74753,-2.50008 -4.85284,-3.0636 -9.80474,-6.19109 -15.41501,-7.65834 -10.81057,-2.86347 -22.36734,-2.01155 -32.95804,1.3621 -12.67872,3.95272 -24.03443,11.40694 -33.66263,20.45452 -3.98626,3.83379 -7.36417,8.59194 -8.44422,14.10725 -0.89386,4.68994 0.40878,9.62984 3.0499,13.55785 2.29463,3.39241 5.30233,6.2445 8.45096,8.83686 3.19028,2.53915 6.55016,4.86356 9.96485,7.08789 8.84528,5.47001 18.85443,8.58906 28.77935,11.45043 5.34367,1.51299 10.57987,3.36928 15.86376,5.07061 5.87632,1.82241 12.03413,2.81785 18.19529,2.58647 9.0277,-0.22302 17.9747,-2.95351 25.57876,-7.82783 6.94281,-4.14086 13.53714,-8.93175 20.9333,-12.26233 1.81906,-0.71294 4.01533,-0.9099 5.72093,0.20493 3.67006,2.05385 6.65828,5.07204 9.97353,7.61951 4.62374,3.66801 9.889,6.79745 15.77579,7.82821 7.47253,1.39605 15.25504,-0.42123 21.85961,-4.01583 3.9276,-2.01277 7.31095,-4.94241 11.29429,-6.84948 0.99733,-0.41976 2.17683,-0.93741 3.20416,-0.28907 2.44403,1.3075 4.36948,3.36469 6.54982,5.04475 5.14253,4.16143 10.74412,7.9169 17.0572,10.04068 8.0157,2.75048 17.16409,2.62873 24.83203,-1.15112 4.28728,-1.90721 7.56745,-5.86475 8.66112,-10.42616 0.90616,-3.58042 0.29342,-7.32559 -0.5205,-10.8626 -1.60739,-6.43395 -4.97055,-12.32228 -9.15102,-17.4268 3.01318,-4.13991 4.90611,-8.95834 6.57031,-13.76367 1.62662,-5.03691 2.65424,-10.3375 2.47039,-15.64165 -0.417,-3.84944 -2.49127,-7.47868 -5.62796,-9.75676 -2.69835,-1.98842 -6.14737,-2.92993 -9.47981,-2.52862 -2.95404,0.38515 -5.72426,1.73742 -8.11262,3.48758 -3.1074,2.36939 -5.92001,5.08876 -8.83008,7.68945 -2.42688,-3.66044 -5.64829,-6.85875 -9.60556,-8.82947 -6.23546,-3.23358 -13.82362,-3.46851 -20.35733,-0.98303 -5.63653,1.96992 -10.53913,5.44713 -15.57226,8.56641 -1.88077,1.03853 -3.76622,2.30079 -5.94532,2.5625 -1.98229,0.20198 -3.53271,-1.31691 -4.99609,-2.41797 -3.09599,-2.60253 -6.06271,-5.37471 -9.42082,-7.64795 -7.38165,-5.16436 -16.17541,-8.7709 -25.29988,-8.63526 z m 0.65429,27.55079 c 4.85023,0.36279 9.09543,3.15675 12.65426,6.28501 4.38259,3.79117 8.84908,7.66489 14.22201,9.99058 7.2199,3.14513 15.58992,2.8432 22.90889,0.18534 5.10616,-1.75232 9.53117,-4.91897 13.9119,-7.98684 1.50229,-1.00321 3.02021,-2.02864 4.72091,-2.66745 2.26432,2.88441 4.24579,6.04206 7.06208,8.44502 2.11918,1.90733 4.61834,3.41345 7.34222,4.27568 -0.26356,1.75329 -0.21432,3.55072 0.12891,5.28906 -4.6738,-3.15754 -9.93673,-5.70079 -15.61446,-6.25609 -5.22493,-0.63921 -10.51313,0.58825 -15.24675,2.78236 -4.71126,2.10047 -8.805,5.30309 -13.36504,7.67739 -1.59602,0.73698 -3.42923,1.73199 -5.20746,0.9845 -1.63636,-0.62799 -2.76164,-2.05884 -4.12956,-3.09485 -4.70427,-4.11906 -9.63097,-8.18313 -15.484,-10.55588 -7.46133,-3.1302 -16.06748,-3.52533 -23.72537,-0.85466 -5.4081,1.83057 -10.15692,5.06773 -14.96174,8.06723 -5.50335,3.27905 -11.08485,6.43499 -16.7823,9.36368 -2.66502,1.25069 -5.62449,1.66308 -8.54379,1.68088 -4.08036,0.15445 -8.01863,-1.11599 -11.84685,-2.36901 -6.20956,-1.88205 -12.71191,-2.84689 -18.6766,-5.4891 -6.44353,-2.58601 -12.80348,-5.43192 -18.80476,-8.9384 -0.16038,-1.13633 -0.55745,-2.20282 -0.99414,-3.25781 7.0415,-5.09539 14.87868,-9.43338 23.49974,-11.06379 5.26841,-0.9584 11.02352,-0.96797 15.85402,1.62464 4.48185,2.41713 8.65393,5.4429 13.43265,7.28506 5.1354,2.15787 10.8817,2.76574 16.35989,1.77675 5.6117,-0.91262 10.79724,-3.42193 15.64827,-6.29519 4.14819,-2.34998 8.11863,-5.18815 12.74,-6.54678 0.94115,-0.24513 1.92321,-0.39213 2.89707,-0.33733 z" /></g></g></svg>
