<?xml version="1.0" encoding="UTF-8" standalone="no"?>
<!-- Created with Inkscape (http://www.inkscape.org/) -->

<svg
   width="617.40698"
   height="550.13623"
   viewBox="0 0 159.14487 141.80494"
   version="1.1"
   id="svg1"
   xml:space="preserve"
   xmlns="http://www.w3.org/2000/svg"
   xmlns:svg="http://www.w3.org/2000/svg"><defs
     id="defs1"><rect
       x="1622.7291"
       y="1123.17"
       width="1149.9919"
       height="643.72729"
       id="rect1" /><rect
       x="3248.655"
       y="1980.5128"
       width="1501.505"
       height="985.65051"
       id="rect128" /><rect
       x="3217.9495"
       y="2084.9119"
       width="1323.4124"
       height="782.99341"
       id="rect127" /><rect
       x="3233.3022"
       y="1891.4666"
       width="1286.5657"
       height="991.79169"
       id="rect126" /><rect
       x="2292.8037"
       y="2162.5308"
       width="1567.6176"
       height="1116.0048"
       id="rect125" /><rect
       x="3725.8059"
       y="2466.5007"
       width="1081.2653"
       height="898.88324"
       id="rect124" /><rect
       x="1470.7994"
       y="322.40906"
       width="1578.269"
       height="546.56012"
       id="rect121" /><rect
       x="1068.8286"
       y="61.326229"
       width="870.31677"
       height="896.49469"
       id="rect42" /><rect
       x="1046.5266"
       y="116.83313"
       width="554.33594"
       height="323.15546"
       id="rect41" /><rect
       x="1056.4698"
       y="27.343924"
       width="522.02039"
       height="350.49939"
       id="rect40" /><rect
       x="35.637646"
       y="71.275291"
       width="64.939713"
       height="62.563869"
       id="rect39" /><rect
       x="1068.8286"
       y="61.326229"
       width="1056.2015"
       height="1166.2666"
       id="rect42-2" /><clipPath
       clipPathUnits="userSpaceOnUse"
       id="clipPath135"><path
         id="path136"
         style="fill:#ff0000;fill-opacity:1;fill-rule:nonzero;stroke:none;stroke-width:1"
         d="m 739.43625,232.29376 c -3.71001,0 -7.42113,3.67117 -7.42278,11.01686 -3e-5,0.14656 2e-4,0.29341 0,0.44 -2.1e-4,0.11342 0,0.22691 -0.003,0.34033 0,0.0948 -0.003,0.2152 -0.003,0.29503 0.01,-0.12223 0.0106,-0.10442 0.006,-0.0357 -0.0911,0.66928 -0.20389,1.33676 -0.19835,2.01527 7e-5,0.4226 5e-5,0.84508 0,1.26768 0,0.28328 0,0.56705 0.004,0.85031 0.005,0.38912 0.0134,0.77824 0.0413,1.16648 0.0506,0.63034 0.13494,1.25804 0.29552,1.8708 0.0178,0.0691 0.0346,0.13852 0.0529,0.20742 0.10494,0.56904 0.24261,1.13289 0.44957,1.67345 0.047,0.23286 0.10354,0.46415 0.16463,0.69374 0.0693,0.39075 0.13788,0.76064 0.0811,0.44153 0.016,0.0894 0.0314,0.17894 0.0478,0.26833 0.006,0.0314 0.0165,0.11403 0.0206,0.12285 v 0 0 0 0 c 0,0 0,-0.003 0,-0.007 1.1e-4,-0.007 0,-0.016 0,-0.0258 0.01,0.0873 0.0168,0.16255 0.0262,0.24266 0,0.1611 -2.4e-4,0.32025 -0.005,0.40577 -0.003,0.14909 -0.006,0.33079 -0.008,0.46668 0.0483,-0.32372 -0.0653,0.44642 -0.078,0.51001 -0.0584,0.41103 -0.14953,1.20554 -0.13543,1.39754 -0.0592,0.45944 -0.142,0.91617 -0.17672,1.37844 -0.11223,0.56997 -0.19469,1.14625 -0.1923,1.72882 -0.11204,0.50109 -0.19631,1.00943 -0.21043,1.52444 -0.0201,0.38623 -0.0539,0.77172 -0.0932,1.1564 -0.12586,1.12053 -0.30578,2.23365 -0.47374,3.3484 -0.19577,1.29784 -0.34814,2.60369 -0.58551,3.89416 -2.65764,14.44867 11.54481,17.4978 14.51078,3.10927 v 0 c 0.3261,-1.58192 0.50635,-3.18946 0.74814,-4.78574 0.20007,-1.29121 0.39479,-2.58348 0.54473,-3.88155 0.0546,-0.49493 0.0978,-0.99102 0.13239,-1.48768 0.12658,-0.55473 0.19169,-1.11993 0.2351,-1.68655 0.01,-0.14285 0.0168,-0.28586 0.0217,-0.42894 0.0693,-0.39657 0.11414,-0.79768 0.14953,-1.19919 0.003,-0.003 0.006,-0.033 0.0121,-0.0715 0.0188,-0.0688 0.0517,-0.14396 0.0272,-0.19332 0.0302,-0.21139 0.0376,-0.27297 0.066,-0.48986 0.0116,-0.099 0.025,-0.19783 0.0347,-0.29702 0.0327,-0.32937 0.0464,-0.51349 0.0639,-0.83121 0.005,-0.0295 0.01,-0.0591 0.0147,-0.0886 0.0222,-0.0928 0.0595,-0.20678 0.0378,-0.24016 0.053,-0.35316 0.0955,-0.70753 0.12937,-1.06327 0.0441,-0.52205 0.0565,-1.04611 0.0639,-1.56973 0.0255,-0.66745 -0.01,-1.33021 -0.0488,-1.99666 -0.0694,-0.60796 -0.16337,-1.21151 -0.27037,-1.81391 -0.085,-0.54179 -0.19381,-1.07941 -0.33932,-1.608 -0.003,-0.006 -0.003,-0.0124 -0.004,-0.0186 -0.0335,-0.14556 -0.0809,-0.35314 -0.14499,-0.63987 -0.0416,-0.15311 -0.0842,-0.30594 -0.12737,-0.45864 -0.01,-0.0345 -0.0386,-0.13795 -0.0297,-0.10321 0.11133,0.43397 0.21758,0.73442 -0.0559,-0.12635 -0.0392,-0.17474 -0.0971,-0.41237 -0.15306,-0.63384 0,-0.0282 -0.003,-0.0505 -0.003,-0.0579 -0.003,-0.22492 -0.003,-0.44966 -0.003,-0.67461 -2.4e-4,-0.23405 0,-0.46826 0,-0.70231 0.0193,-0.12633 0.0556,-0.50207 0.0629,-0.5553 0.0577,-0.42384 0.0916,-0.84971 0.11377,-1.27672 0.0119,-0.27854 0.0157,-0.55747 0.0186,-0.83624 0.003,-0.15414 0.003,-0.30849 0.003,-0.46266 2.3e-4,-0.15484 0,-0.30983 0,-0.46467 0.003,-7.34553 -3.70772,-11.0191 -7.41776,-11.01987 z m 7.07439,15.4814 c -0.0124,-0.0421 0.0255,0.0808 0.0393,0.12586 0,0 2.3e-4,0.003 0,0.003 0.006,0.0268 0.0118,0.0534 0.0175,0.0801 -0.024,-0.09 -0.0441,-0.16314 -0.0574,-0.20843 z m 0.0448,0.39569 c 0.0162,0.0407 0.0139,0.0361 0.003,0.008 0,-0.003 -0.003,-0.005 -0.003,-0.008 z m 0.72444,12.60826 v 0 0 0 c 0.004,0.0124 -0.003,0.15357 -0.0378,0.52006 -0.003,-0.22861 0.0268,-0.50168 0.0362,-0.52006 z" /></clipPath><clipPath
       clipPathUnits="userSpaceOnUse"
       id="clipPath136"><path
         id="path137"
         style="fill:#ff0000;fill-opacity:1;fill-rule:nonzero;stroke:none;stroke-width:1"
         d="m 739.43625,232.29376 c -3.71001,0 -7.42113,3.67117 -7.42278,11.01686 -3e-5,0.14656 2e-4,0.29341 0,0.44 -2.1e-4,0.11342 0,0.22691 -0.003,0.34033 0,0.0948 -0.003,0.2152 -0.003,0.29503 0.01,-0.12223 0.0106,-0.10442 0.006,-0.0357 -0.0911,0.66928 -0.20389,1.33676 -0.19835,2.01527 7e-5,0.4226 5e-5,0.84508 0,1.26768 0,0.28328 0,0.56705 0.004,0.85031 0.005,0.38912 0.0134,0.77824 0.0413,1.16648 0.0506,0.63034 0.13494,1.25804 0.29552,1.8708 0.0178,0.0691 0.0346,0.13852 0.0529,0.20742 0.10494,0.56904 0.24261,1.13289 0.44957,1.67345 0.047,0.23286 0.10354,0.46415 0.16463,0.69374 0.0693,0.39075 0.13788,0.76064 0.0811,0.44153 0.016,0.0894 0.0314,0.17894 0.0478,0.26833 0.006,0.0314 0.0165,0.11403 0.0206,0.12285 v 0 0 0 0 c 0,0 0,-0.003 0,-0.007 1.1e-4,-0.007 0,-0.016 0,-0.0258 0.01,0.0873 0.0168,0.16255 0.0262,0.24266 0,0.1611 -2.4e-4,0.32025 -0.005,0.40577 -0.003,0.14909 -0.006,0.33079 -0.008,0.46668 0.0483,-0.32372 -0.0653,0.44642 -0.078,0.51001 -0.0584,0.41103 -0.14953,1.20554 -0.13543,1.39754 -0.0592,0.45944 -0.142,0.91617 -0.17672,1.37844 -0.11223,0.56997 -0.19469,1.14625 -0.1923,1.72882 -0.11204,0.50109 -0.19631,1.00943 -0.21043,1.52444 -0.0201,0.38623 -0.0539,0.77172 -0.0932,1.1564 -0.12586,1.12053 -0.30578,2.23365 -0.47374,3.3484 -0.19577,1.29784 -0.34814,2.60369 -0.58551,3.89416 -2.65764,14.44867 11.54481,17.4978 14.51078,3.10927 v 0 c 0.3261,-1.58192 0.50635,-3.18946 0.74814,-4.78574 0.20007,-1.29121 0.39479,-2.58348 0.54473,-3.88155 0.0546,-0.49493 0.0978,-0.99102 0.13239,-1.48768 0.12658,-0.55473 0.19169,-1.11993 0.2351,-1.68655 0.01,-0.14285 0.0168,-0.28586 0.0217,-0.42894 0.0693,-0.39657 0.11414,-0.79768 0.14953,-1.19919 0.003,-0.003 0.006,-0.033 0.0121,-0.0715 0.0188,-0.0688 0.0517,-0.14396 0.0272,-0.19332 0.0302,-0.21139 0.0376,-0.27297 0.066,-0.48986 0.0116,-0.099 0.025,-0.19783 0.0347,-0.29702 0.0327,-0.32937 0.0464,-0.51349 0.0639,-0.83121 0.005,-0.0295 0.01,-0.0591 0.0147,-0.0886 0.0222,-0.0928 0.0595,-0.20678 0.0378,-0.24016 0.053,-0.35316 0.0955,-0.70753 0.12937,-1.06327 0.0441,-0.52205 0.0565,-1.04611 0.0639,-1.56973 0.0255,-0.66745 -0.01,-1.33021 -0.0488,-1.99666 -0.0694,-0.60796 -0.16337,-1.21151 -0.27037,-1.81391 -0.085,-0.54179 -0.19381,-1.07941 -0.33932,-1.608 -0.003,-0.006 -0.003,-0.0124 -0.004,-0.0186 -0.0335,-0.14556 -0.0809,-0.35314 -0.14499,-0.63987 -0.0416,-0.15311 -0.0842,-0.30594 -0.12737,-0.45864 -0.01,-0.0345 -0.0386,-0.13795 -0.0297,-0.10321 0.11133,0.43397 0.21758,0.73442 -0.0559,-0.12635 -0.0392,-0.17474 -0.0971,-0.41237 -0.15306,-0.63384 0,-0.0282 -0.003,-0.0505 -0.003,-0.0579 -0.003,-0.22492 -0.003,-0.44966 -0.003,-0.67461 -2.4e-4,-0.23405 0,-0.46826 0,-0.70231 0.0193,-0.12633 0.0556,-0.50207 0.0629,-0.5553 0.0577,-0.42384 0.0916,-0.84971 0.11377,-1.27672 0.0119,-0.27854 0.0157,-0.55747 0.0186,-0.83624 0.003,-0.15414 0.003,-0.30849 0.003,-0.46266 2.3e-4,-0.15484 0,-0.30983 0,-0.46467 0.003,-7.34553 -3.70772,-11.0191 -7.41776,-11.01987 z m 7.07439,15.4814 c -0.0124,-0.0421 0.0255,0.0808 0.0393,0.12586 0,0 2.3e-4,0.003 0,0.003 0.006,0.0268 0.0118,0.0534 0.0175,0.0801 -0.024,-0.09 -0.0441,-0.16314 -0.0574,-0.20843 z m 0.0448,0.39569 c 0.0162,0.0407 0.0139,0.0361 0.003,0.008 0,-0.003 -0.003,-0.005 -0.003,-0.008 z m 0.72444,12.60826 v 0 0 0 c 0.004,0.0124 -0.003,0.15357 -0.0378,0.52006 -0.003,-0.22861 0.0268,-0.50168 0.0362,-0.52006 z" /></clipPath></defs><g
     id="layer12"
     style="display:inline"
     transform="translate(-84.483217,-17.588344)"><text
       xml:space="preserve"
       style="font-style:normal;font-variant:normal;font-weight:normal;font-stretch:normal;font-size:49.4906px;line-height:1.2;font-family:'Lucida Grande';-inkscape-font-specification:'Lucida Grande, Normal';font-variant-ligatures:normal;font-variant-caps:normal;font-variant-numeric:normal;font-variant-east-asian:normal;text-align:start;letter-spacing:-3.73757px;word-spacing:0.00257763px;writing-mode:lr-tb;direction:ltr;text-anchor:start;display:inline;fill:#00222b;stroke-width:0.257763"
       x="169.06462"
       y="392.62918"
       id="text59-7-1-6-4-7-0-7"
       transform="translate(-84.581454,-337.43958)"><tspan
         style="font-style:normal;font-variant:normal;font-weight:bold;font-stretch:normal;font-size:49.4906px;line-height:1.2;font-family:'Open Sans SemiCondensed';-inkscape-font-specification:'Open Sans SemiCondensed, ';font-variant-ligatures:normal;font-variant-caps:normal;font-variant-numeric:normal;font-variant-east-asian:normal;letter-spacing:-3.73757px;fill:#00222b;stroke-width:0.257763"
         x="169.06462"
         y="392.62918"
         id="tspan61-9-0-0-4-9-2-0">Weird</tspan></text><text
       xml:space="preserve"
       style="font-style:normal;font-variant:normal;font-weight:normal;font-stretch:normal;font-size:49.4906px;line-height:1.2;font-family:'Lucida Grande';-inkscape-font-specification:'Lucida Grande, Normal';font-variant-ligatures:normal;font-variant-caps:normal;font-variant-numeric:normal;font-variant-east-asian:normal;text-align:start;letter-spacing:-3.73757px;word-spacing:0.00257763px;writing-mode:lr-tb;direction:ltr;text-anchor:start;display:inline;fill:#00222b;stroke-width:0.257763"
       x="169.06462"
       y="438.78635"
       id="text59-7-1-7-0-5-5-2-9"
       transform="translate(-84.581454,-337.43958)"><tspan
         style="font-style:normal;font-variant:normal;font-weight:bold;font-stretch:normal;font-size:49.4906px;line-height:1.2;font-family:'Open Sans SemiCondensed';-inkscape-font-specification:'Open Sans SemiCondensed, ';font-variant-ligatures:normal;font-variant-caps:normal;font-variant-numeric:normal;font-variant-east-asian:normal;letter-spacing:-3.73757px;fill:#00222b;stroke-width:0.257763"
         x="169.06462"
         y="438.78635"
         id="tspan61-9-0-5-3-7-1-4-3">Fishes</tspan></text><text
       xml:space="preserve"
       style="font-style:normal;font-variant:normal;font-weight:normal;font-stretch:normal;font-size:49.4906px;line-height:1.5;font-family:'Lucida Grande';-inkscape-font-specification:'Lucida Grande, Normal';font-variant-ligatures:normal;font-variant-caps:normal;font-variant-numeric:normal;font-variant-east-asian:normal;text-align:start;letter-spacing:-3.35092px;word-spacing:0.00257763px;writing-mode:lr-tb;direction:ltr;text-anchor:start;white-space:pre;inline-size:243.922;display:inline;fill:#00222b;stroke-width:0.257763"
       x="440.33508"
       y="245.63272"
       id="text59-7-1-7-2-9-7-79-5-8"
       transform="translate(-355.85272,-98.12878)"><tspan
         x="440.33508"
         y="245.63272"
         id="tspan6"><tspan
           style="font-weight:600;font-stretch:semi-condensed;font-family:'Open Sans SemiCondensed';-inkscape-font-specification:'Open Sans SemiCondensed,  Semi-Bold Semi-Condensed'"
           id="tspan4">Adviso</tspan><tspan
           dx="-2.0621035"
           style="font-weight:600;font-stretch:semi-condensed;font-family:'Open Sans SemiCondensed';-inkscape-font-specification:'Open Sans SemiCondensed,  Semi-Bold Semi-Condensed';letter-spacing:-1.28882px"
           id="tspan5">ry</tspan></tspan></text></g></svg>
