<?xml version="1.0" encoding="UTF-8" standalone="no"?>
<!-- Created with Inkscape (http://www.inkscape.org/) -->

<svg
   width="906.41559"
   height="833.89954"
   viewBox="0 0 233.64068 214.94871"
   version="1.1"
   id="svg1"
   xml:space="preserve"
   xmlns="http://www.w3.org/2000/svg"
   xmlns:svg="http://www.w3.org/2000/svg"><defs
     id="defs1"><rect
       x="1622.7291"
       y="1123.17"
       width="1149.9919"
       height="643.72729"
       id="rect1" /><rect
       x="3248.655"
       y="1980.5128"
       width="1501.505"
       height="985.65051"
       id="rect128" /><rect
       x="3217.9495"
       y="2084.9119"
       width="1323.4124"
       height="782.99341"
       id="rect127" /><rect
       x="3233.3022"
       y="1891.4666"
       width="1286.5657"
       height="991.79169"
       id="rect126" /><rect
       x="2292.8037"
       y="2162.5308"
       width="1567.6176"
       height="1116.0048"
       id="rect125" /><rect
       x="3725.8059"
       y="2466.5007"
       width="1081.2653"
       height="898.88324"
       id="rect124" /><rect
       x="1470.7994"
       y="322.40906"
       width="1578.269"
       height="546.56012"
       id="rect121" /><rect
       x="1068.8286"
       y="61.326229"
       width="870.31677"
       height="896.49469"
       id="rect42" /><rect
       x="1046.5266"
       y="116.83313"
       width="554.33594"
       height="323.15546"
       id="rect41" /><rect
       x="1056.4698"
       y="27.343924"
       width="522.02039"
       height="350.49939"
       id="rect40" /><rect
       x="35.637646"
       y="71.275291"
       width="64.939713"
       height="62.563869"
       id="rect39" /><rect
       x="1068.8286"
       y="61.326229"
       width="1056.2015"
       height="1166.2666"
       id="rect42-2" /><clipPath
       clipPathUnits="userSpaceOnUse"
       id="clipPath135"><path
         id="path136"
         style="fill:#ff0000;fill-opacity:1;fill-rule:nonzero;stroke:none;stroke-width:1"
         d="m 739.43625,232.29376 c -3.71001,0 -7.42113,3.67117 -7.42278,11.01686 -3e-5,0.14656 2e-4,0.29341 0,0.44 -2.1e-4,0.11342 0,0.22691 -0.003,0.34033 0,0.0948 -0.003,0.2152 -0.003,0.29503 0.01,-0.12223 0.0106,-0.10442 0.006,-0.0357 -0.0911,0.66928 -0.20389,1.33676 -0.19835,2.01527 7e-5,0.4226 5e-5,0.84508 0,1.26768 0,0.28328 0,0.56705 0.004,0.85031 0.005,0.38912 0.0134,0.77824 0.0413,1.16648 0.0506,0.63034 0.13494,1.25804 0.29552,1.8708 0.0178,0.0691 0.0346,0.13852 0.0529,0.20742 0.10494,0.56904 0.24261,1.13289 0.44957,1.67345 0.047,0.23286 0.10354,0.46415 0.16463,0.69374 0.0693,0.39075 0.13788,0.76064 0.0811,0.44153 0.016,0.0894 0.0314,0.17894 0.0478,0.26833 0.006,0.0314 0.0165,0.11403 0.0206,0.12285 v 0 0 0 0 c 0,0 0,-0.003 0,-0.007 1.1e-4,-0.007 0,-0.016 0,-0.0258 0.01,0.0873 0.0168,0.16255 0.0262,0.24266 0,0.1611 -2.4e-4,0.32025 -0.005,0.40577 -0.003,0.14909 -0.006,0.33079 -0.008,0.46668 0.0483,-0.32372 -0.0653,0.44642 -0.078,0.51001 -0.0584,0.41103 -0.14953,1.20554 -0.13543,1.39754 -0.0592,0.45944 -0.142,0.91617 -0.17672,1.37844 -0.11223,0.56997 -0.19469,1.14625 -0.1923,1.72882 -0.11204,0.50109 -0.19631,1.00943 -0.21043,1.52444 -0.0201,0.38623 -0.0539,0.77172 -0.0932,1.1564 -0.12586,1.12053 -0.30578,2.23365 -0.47374,3.3484 -0.19577,1.29784 -0.34814,2.60369 -0.58551,3.89416 -2.65764,14.44867 11.54481,17.4978 14.51078,3.10927 v 0 c 0.3261,-1.58192 0.50635,-3.18946 0.74814,-4.78574 0.20007,-1.29121 0.39479,-2.58348 0.54473,-3.88155 0.0546,-0.49493 0.0978,-0.99102 0.13239,-1.48768 0.12658,-0.55473 0.19169,-1.11993 0.2351,-1.68655 0.01,-0.14285 0.0168,-0.28586 0.0217,-0.42894 0.0693,-0.39657 0.11414,-0.79768 0.14953,-1.19919 0.003,-0.003 0.006,-0.033 0.0121,-0.0715 0.0188,-0.0688 0.0517,-0.14396 0.0272,-0.19332 0.0302,-0.21139 0.0376,-0.27297 0.066,-0.48986 0.0116,-0.099 0.025,-0.19783 0.0347,-0.29702 0.0327,-0.32937 0.0464,-0.51349 0.0639,-0.83121 0.005,-0.0295 0.01,-0.0591 0.0147,-0.0886 0.0222,-0.0928 0.0595,-0.20678 0.0378,-0.24016 0.053,-0.35316 0.0955,-0.70753 0.12937,-1.06327 0.0441,-0.52205 0.0565,-1.04611 0.0639,-1.56973 0.0255,-0.66745 -0.01,-1.33021 -0.0488,-1.99666 -0.0694,-0.60796 -0.16337,-1.21151 -0.27037,-1.81391 -0.085,-0.54179 -0.19381,-1.07941 -0.33932,-1.608 -0.003,-0.006 -0.003,-0.0124 -0.004,-0.0186 -0.0335,-0.14556 -0.0809,-0.35314 -0.14499,-0.63987 -0.0416,-0.15311 -0.0842,-0.30594 -0.12737,-0.45864 -0.01,-0.0345 -0.0386,-0.13795 -0.0297,-0.10321 0.11133,0.43397 0.21758,0.73442 -0.0559,-0.12635 -0.0392,-0.17474 -0.0971,-0.41237 -0.15306,-0.63384 0,-0.0282 -0.003,-0.0505 -0.003,-0.0579 -0.003,-0.22492 -0.003,-0.44966 -0.003,-0.67461 -2.4e-4,-0.23405 0,-0.46826 0,-0.70231 0.0193,-0.12633 0.0556,-0.50207 0.0629,-0.5553 0.0577,-0.42384 0.0916,-0.84971 0.11377,-1.27672 0.0119,-0.27854 0.0157,-0.55747 0.0186,-0.83624 0.003,-0.15414 0.003,-0.30849 0.003,-0.46266 2.3e-4,-0.15484 0,-0.30983 0,-0.46467 0.003,-7.34553 -3.70772,-11.0191 -7.41776,-11.01987 z m 7.07439,15.4814 c -0.0124,-0.0421 0.0255,0.0808 0.0393,0.12586 0,0 2.3e-4,0.003 0,0.003 0.006,0.0268 0.0118,0.0534 0.0175,0.0801 -0.024,-0.09 -0.0441,-0.16314 -0.0574,-0.20843 z m 0.0448,0.39569 c 0.0162,0.0407 0.0139,0.0361 0.003,0.008 0,-0.003 -0.003,-0.005 -0.003,-0.008 z m 0.72444,12.60826 v 0 0 0 c 0.004,0.0124 -0.003,0.15357 -0.0378,0.52006 -0.003,-0.22861 0.0268,-0.50168 0.0362,-0.52006 z" /></clipPath><clipPath
       clipPathUnits="userSpaceOnUse"
       id="clipPath136"><path
         id="path137"
         style="fill:#ff0000;fill-opacity:1;fill-rule:nonzero;stroke:none;stroke-width:1"
         d="m 739.43625,232.29376 c -3.71001,0 -7.42113,3.67117 -7.42278,11.01686 -3e-5,0.14656 2e-4,0.29341 0,0.44 -2.1e-4,0.11342 0,0.22691 -0.003,0.34033 0,0.0948 -0.003,0.2152 -0.003,0.29503 0.01,-0.12223 0.0106,-0.10442 0.006,-0.0357 -0.0911,0.66928 -0.20389,1.33676 -0.19835,2.01527 7e-5,0.4226 5e-5,0.84508 0,1.26768 0,0.28328 0,0.56705 0.004,0.85031 0.005,0.38912 0.0134,0.77824 0.0413,1.16648 0.0506,0.63034 0.13494,1.25804 0.29552,1.8708 0.0178,0.0691 0.0346,0.13852 0.0529,0.20742 0.10494,0.56904 0.24261,1.13289 0.44957,1.67345 0.047,0.23286 0.10354,0.46415 0.16463,0.69374 0.0693,0.39075 0.13788,0.76064 0.0811,0.44153 0.016,0.0894 0.0314,0.17894 0.0478,0.26833 0.006,0.0314 0.0165,0.11403 0.0206,0.12285 v 0 0 0 0 c 0,0 0,-0.003 0,-0.007 1.1e-4,-0.007 0,-0.016 0,-0.0258 0.01,0.0873 0.0168,0.16255 0.0262,0.24266 0,0.1611 -2.4e-4,0.32025 -0.005,0.40577 -0.003,0.14909 -0.006,0.33079 -0.008,0.46668 0.0483,-0.32372 -0.0653,0.44642 -0.078,0.51001 -0.0584,0.41103 -0.14953,1.20554 -0.13543,1.39754 -0.0592,0.45944 -0.142,0.91617 -0.17672,1.37844 -0.11223,0.56997 -0.19469,1.14625 -0.1923,1.72882 -0.11204,0.50109 -0.19631,1.00943 -0.21043,1.52444 -0.0201,0.38623 -0.0539,0.77172 -0.0932,1.1564 -0.12586,1.12053 -0.30578,2.23365 -0.47374,3.3484 -0.19577,1.29784 -0.34814,2.60369 -0.58551,3.89416 -2.65764,14.44867 11.54481,17.4978 14.51078,3.10927 v 0 c 0.3261,-1.58192 0.50635,-3.18946 0.74814,-4.78574 0.20007,-1.29121 0.39479,-2.58348 0.54473,-3.88155 0.0546,-0.49493 0.0978,-0.99102 0.13239,-1.48768 0.12658,-0.55473 0.19169,-1.11993 0.2351,-1.68655 0.01,-0.14285 0.0168,-0.28586 0.0217,-0.42894 0.0693,-0.39657 0.11414,-0.79768 0.14953,-1.19919 0.003,-0.003 0.006,-0.033 0.0121,-0.0715 0.0188,-0.0688 0.0517,-0.14396 0.0272,-0.19332 0.0302,-0.21139 0.0376,-0.27297 0.066,-0.48986 0.0116,-0.099 0.025,-0.19783 0.0347,-0.29702 0.0327,-0.32937 0.0464,-0.51349 0.0639,-0.83121 0.005,-0.0295 0.01,-0.0591 0.0147,-0.0886 0.0222,-0.0928 0.0595,-0.20678 0.0378,-0.24016 0.053,-0.35316 0.0955,-0.70753 0.12937,-1.06327 0.0441,-0.52205 0.0565,-1.04611 0.0639,-1.56973 0.0255,-0.66745 -0.01,-1.33021 -0.0488,-1.99666 -0.0694,-0.60796 -0.16337,-1.21151 -0.27037,-1.81391 -0.085,-0.54179 -0.19381,-1.07941 -0.33932,-1.608 -0.003,-0.006 -0.003,-0.0124 -0.004,-0.0186 -0.0335,-0.14556 -0.0809,-0.35314 -0.14499,-0.63987 -0.0416,-0.15311 -0.0842,-0.30594 -0.12737,-0.45864 -0.01,-0.0345 -0.0386,-0.13795 -0.0297,-0.10321 0.11133,0.43397 0.21758,0.73442 -0.0559,-0.12635 -0.0392,-0.17474 -0.0971,-0.41237 -0.15306,-0.63384 0,-0.0282 -0.003,-0.0505 -0.003,-0.0579 -0.003,-0.22492 -0.003,-0.44966 -0.003,-0.67461 -2.4e-4,-0.23405 0,-0.46826 0,-0.70231 0.0193,-0.12633 0.0556,-0.50207 0.0629,-0.5553 0.0577,-0.42384 0.0916,-0.84971 0.11377,-1.27672 0.0119,-0.27854 0.0157,-0.55747 0.0186,-0.83624 0.003,-0.15414 0.003,-0.30849 0.003,-0.46266 2.3e-4,-0.15484 0,-0.30983 0,-0.46467 0.003,-7.34553 -3.70772,-11.0191 -7.41776,-11.01987 z m 7.07439,15.4814 c -0.0124,-0.0421 0.0255,0.0808 0.0393,0.12586 0,0 2.3e-4,0.003 0,0.003 0.006,0.0268 0.0118,0.0534 0.0175,0.0801 -0.024,-0.09 -0.0441,-0.16314 -0.0574,-0.20843 z m 0.0448,0.39569 c 0.0162,0.0407 0.0139,0.0361 0.003,0.008 0,-0.003 -0.003,-0.005 -0.003,-0.008 z m 0.72444,12.60826 v 0 0 0 c 0.004,0.0124 -0.003,0.15357 -0.0378,0.52006 -0.003,-0.22861 0.0268,-0.50168 0.0362,-0.52006 z" /></clipPath></defs><g
     id="layer4"
     transform="translate(-1363.8634,-14.205614)"
     style="display:inline"><g
       id="g8-1-4"
       transform="translate(1201.9785,-340.82231)"
       style="fill:#00222b"><text
         xml:space="preserve"
         style="font-style:normal;font-variant:normal;font-weight:normal;font-stretch:normal;font-size:49.4906px;line-height:1.2;font-family:'Lucida Grande';-inkscape-font-specification:'Lucida Grande, Normal';font-variant-ligatures:normal;font-variant-caps:normal;font-variant-numeric:normal;font-variant-east-asian:normal;text-align:start;letter-spacing:-3.73757px;word-spacing:0.00257763px;writing-mode:lr-tb;direction:ltr;text-anchor:start;display:inline;fill:#00222b;stroke-width:0.257763"
         x="169.06462"
         y="392.62918"
         id="text59-7-1-6-4-7-0-7-2-8"><tspan
           style="font-style:normal;font-variant:normal;font-weight:bold;font-stretch:normal;font-size:49.4906px;line-height:1.2;font-family:'Open Sans SemiCondensed';-inkscape-font-specification:'Open Sans SemiCondensed, ';font-variant-ligatures:normal;font-variant-caps:normal;font-variant-numeric:normal;font-variant-east-asian:normal;letter-spacing:-3.73757px;fill:#00222b;stroke-width:0.257763"
           x="169.06462"
           y="392.62918"
           id="tspan61-9-0-0-4-9-2-0-6-6">Weird</tspan></text><text
         xml:space="preserve"
         style="font-style:normal;font-variant:normal;font-weight:normal;font-stretch:normal;font-size:49.4906px;line-height:1.2;font-family:'Lucida Grande';-inkscape-font-specification:'Lucida Grande, Normal';font-variant-ligatures:normal;font-variant-caps:normal;font-variant-numeric:normal;font-variant-east-asian:normal;text-align:start;letter-spacing:-3.73757px;word-spacing:0.00257763px;writing-mode:lr-tb;direction:ltr;text-anchor:start;display:inline;fill:#00222b;stroke-width:0.257763"
         x="169.06462"
         y="438.78635"
         id="text59-7-1-7-0-5-5-2-9-6-1"><tspan
           style="font-style:normal;font-variant:normal;font-weight:bold;font-stretch:normal;font-size:49.4906px;line-height:1.2;font-family:'Open Sans SemiCondensed';-inkscape-font-specification:'Open Sans SemiCondensed, ';font-variant-ligatures:normal;font-variant-caps:normal;font-variant-numeric:normal;font-variant-east-asian:normal;letter-spacing:-3.73757px;fill:#00222b;stroke-width:0.257763"
           x="169.06462"
           y="438.78635"
           id="tspan61-9-0-5-3-7-1-4-3-5-5">Fishes</tspan></text><text
         xml:space="preserve"
         style="font-style:normal;font-variant:normal;font-weight:normal;font-stretch:normal;font-size:49.4906px;line-height:1.5;font-family:'Lucida Grande';-inkscape-font-specification:'Lucida Grande, Normal';font-variant-ligatures:normal;font-variant-caps:normal;font-variant-numeric:normal;font-variant-east-asian:normal;text-align:start;letter-spacing:-3.35092px;word-spacing:0.00257763px;writing-mode:lr-tb;direction:ltr;text-anchor:start;white-space:pre;inline-size:243.922;display:inline;fill:#00222b;stroke-width:0.257763"
         x="440.33508"
         y="245.63272"
         id="text59-7-1-7-2-9-7-79-5-8-4-0"
         transform="translate(-271.27128,239.31079)"><tspan
           x="440.33508"
           y="245.63272"
           id="tspan3"><tspan
             style="font-weight:600;font-stretch:semi-condensed;font-family:'Open Sans SemiCondensed';-inkscape-font-specification:'Open Sans SemiCondensed,  Semi-Bold Semi-Condensed'"
             id="tspan1">Adviso</tspan><tspan
             dx="-2.0621035"
             style="font-weight:600;font-stretch:semi-condensed;font-family:'Open Sans SemiCondensed';-inkscape-font-specification:'Open Sans SemiCondensed,  Semi-Bold Semi-Condensed';letter-spacing:-1.28882px"
             id="tspan2">ry</tspan></tspan></text></g><path
       id="path62-9-5-2-7"
       style="display:inline;fill:#00222b;stroke-width:1.81693"
       d="m 1452.4205,188.02551 c -3.2249,0.15729 -6.3444,0.20782 -9.429,0.78711 -1.6613,0.69839 -1.8263,1.97452 -2.5362,2.98733 -2.4103,4.89813 -2.3096,10.1867 -6.4975,14.79784 -1.2698,1.69144 -3.0681,3.55495 -2.0905,5.47069 0.9428,1.08765 3.5255,0.84893 5.2758,0.65887 9.25,-1.04035 17.1842,-4.18976 24.0807,-7.62962 5.2091,-2.69803 9.9684,-5.68869 13.9675,-8.96437 1.4475,-1.3053 2.8739,-2.91512 2.0696,-4.47504 -0.9805,-1.4388 -3.7736,-1.9485 -6.1634,-2.34405 -6.0168,-1.04533 -12.3885,-1.4263 -18.677,-1.28876 z m 2.5322,2.52734 c 6.1091,0.10985 11.9563,1.20381 17.8451,2.00391 -2.9172,4.92101 -9.4213,8.90277 -16.7716,11.9621 -5.5567,2.3211 -11.9575,4.13696 -18.908,4.67462 2.0667,-5.02521 5.0582,-9.91716 7.048,-14.95313 0.7747,-1.56062 2.8549,-2.97606 5.7825,-3.3539 1.6153,-0.2828 3.3217,-0.33419 5.004,-0.3336 z" /><path
       id="path61-4-7-9-64"
       style="display:inline;fill:#00222b;stroke-width:0.309316;stroke-dasharray:none;paint-order:markers stroke fill"
       d="m 1484.1538,162.34181 c -7.4222,0.54797 -14.6293,3.30582 -20.6097,7.72003 -3.9541,2.61277 -8.0011,5.31263 -12.7791,6.04451 -4.4586,0.69661 -8.8813,-1.15116 -12.5595,-3.44881 -4.6158,-2.78115 -9.1097,-6.10928 -14.4895,-7.22992 -9.408,-2.20617 -19.3509,-0.85457 -28.3279,2.46907 -9.9387,3.63162 -18.8036,9.76318 -26.4772,16.97569 -2.2287,2.24037 -4.3884,4.84729 -5.0057,8.02954 -0.3272,2.73586 1.32,5.20839 3.1231,7.09798 3.5301,3.94304 8.009,6.84696 12.3291,9.83384 7.9933,5.13808 17.1723,7.91826 26.2194,10.55605 4.8834,1.39845 9.7132,2.96289 14.5045,4.61798 4.684,1.57259 9.5565,2.7394 14.522,2.76535 7.4974,0.2004 15.0571,-1.77524 21.4118,-5.78176 7.5722,-4.51643 14.7929,-9.72223 22.8425,-13.33065 4.6433,-1.95381 10.174,-2.27389 14.7515,0.0438 6.9989,3.30232 11.8492,9.77707 18.7596,13.21739 3.0112,1.52693 6.451,2.15566 9.806,1.7603 4.9718,-0.48404 9.5174,-2.85247 13.5699,-5.64852 3.385,-2.21458 6.722,-4.55893 10.7092,-5.64279 2.9848,-0.89922 6.2469,-0.66711 9.1034,0.56312 4.1229,1.70091 7.1816,5.07742 10.6962,7.70031 4.9778,3.95824 10.6617,7.4575 17.0793,8.30795 4.1898,0.54836 8.6341,-0.049 12.3328,-2.16146 1.2978,-0.83673 1.9786,-2.39645 1.8145,-3.91797 -0.2922,-4.54795 -2.1011,-8.88134 -4.5152,-12.7012 -1.6654,-2.61299 -3.6049,-5.0467 -5.8087,-7.22615 -1.0924,-1.21149 -2.4515,-2.68892 -2.1273,-4.45742 0.7677,-2.33344 2.759,-3.9434 4.1391,-5.89568 2.2028,-2.78442 3.4838,-6.13173 4.7594,-9.40705 1.4675,-4.05925 2.4991,-8.34009 2.52,-12.67112 -0.1432,-1.32449 -1.5973,-2.52422 -2.9117,-1.90238 -1.9602,0.66382 -3.3734,2.26939 -4.9717,3.50413 -3.8565,3.34262 -7.3747,7.33495 -12.1788,9.34111 -2.4671,0.92037 -5.4283,-0.0637 -6.9073,-2.23164 -2.4127,-2.98647 -4.0132,-6.86079 -7.4151,-8.97866 -3.4395,-2.25872 -7.9124,-2.59644 -11.7567,-1.24117 -6.9576,2.26718 -12.3631,7.47303 -19.0086,10.35832 -3.4432,1.58206 -7.4019,2.16665 -11.1033,1.21208 -4.1109,-1.02884 -7.394,-3.89943 -10.5291,-6.59907 -4.1854,-3.79515 -8.8078,-7.21264 -14.054,-9.38979 -3.613,-1.50591 -7.5251,-2.42586 -11.4572,-2.25533 z m 0.7657,4.67578 c 5.453,0.0915 10.8322,2.16576 15.3767,5.1798 5.7095,3.73727 10.1332,9.33066 16.4765,12.10818 4.8183,2.03588 10.381,1.46893 15.1534,-0.41805 6.7295,-2.59553 11.6894,-8.4237 18.6105,-10.62188 3.1455,-0.97927 6.8447,-0.76319 9.4938,1.35406 3.6594,2.76105 5.3615,7.46527 9.1039,10.23188 1.858,1.40917 4.3062,2.00486 6.5898,1.46289 3.5526,-0.7623 6.3908,-3.21271 9.1468,-5.42874 2.3427,-1.94433 4.6258,-3.96191 7.0349,-5.82517 -0.742,5.02585 -2.4636,9.94816 -5.3978,14.1232 -1.7628,2.61462 -3.9512,4.89847 -6.1335,7.15805 -1.1745,1.44214 -1.5253,3.71079 -0.2542,5.20903 1.7312,2.43507 4.2824,4.13256 6.0364,6.55292 2.8994,3.54688 5.2916,7.61101 6.764,11.861 0.2877,0.88829 0.632,1.78514 0.78,2.70127 -0.5193,0.4582 -1.2565,0.64416 -1.8647,0.99138 -4.0904,1.86435 -9.0083,1.78325 -13.0118,-0.27788 -7.9515,-3.64204 -13.8138,-10.56839 -21.6883,-14.33354 -3.3893,-1.62013 -7.3232,-2.29305 -10.9981,-1.31224 -5.7386,1.43555 -10.4192,5.3443 -15.4841,8.12513 -2.7075,1.50168 -5.5475,2.75928 -8.66,3.19582 -4.6084,0.57316 -9.3354,-1.13582 -12.7309,-4.25593 -4.8296,-4.03234 -9.5056,-8.74563 -15.6104,-10.86102 -5.0729,-1.86374 -10.8364,-1.80448 -15.8226,0.31368 -4.6979,1.90053 -8.7371,5.03334 -13.1197,7.5233 -4.9159,2.93718 -10.024,5.7299 -15.027,8.3913 -4.0981,2.11642 -8.6907,3.21687 -13.2977,3.27503 -5.3481,0.355 -10.6597,-0.85129 -15.6827,-2.59667 -6.4281,-1.97132 -13.1517,-2.98924 -19.3678,-5.63682 -9.015,-3.59099 -17.9497,-7.64825 -26.024,-13.02738 -1.3602,-0.91764 -2.6896,-1.88103 -3.9735,-2.90283 0.9709,0.007 2.0877,0.11028 2.92,-0.45703 0.4141,-0.66104 0.4732,-1.68198 -0.016,-2.32031 -1.3558,-0.88778 -3.0083,-1.18468 -4.4783,-1.84578 -0.4843,-0.19629 -0.9702,-0.38978 -1.4456,-0.60735 0.9119,-2.45828 2.443,-4.64626 4.2071,-6.53515 2.8764,-3.03513 6.3974,-5.34967 9.8436,-7.67725 6.3878,-4.16887 13.2631,-7.53764 20.6857,-9.41846 7.7048,-1.94246 16.2031,-2.24204 23.7133,0.77938 6.1843,2.53633 11.3068,7.30579 17.8641,8.9932 5.1525,1.29871 10.5837,-0.12709 15.2017,-2.50419 6.6196,-3.33718 12.5533,-8.09903 19.8225,-9.99179 1.719,-0.43595 3.49,-0.66339 5.2636,-0.67504 z" /><path
       d="m 1416.0014,192.60775 c 0.8118,0.29241 0.7697,2.24338 0.3781,3.68622 -1.1289,4.15942 -3.2626,12.25098 -6.3821,14.52133 -0.851,0.61932 -1.9064,0.84058 -1.89,-0.86391 0.014,-1.41277 1.2293,-2.90012 1.8306,-4.00942 1.3672,-2.5224 2.5503,-5.18896 3.2623,-8.10747 0.3622,-1.48496 0.4604,-3.95808 1.6392,-4.85118 0.4328,-0.32795 0.7754,-0.44434 1.0406,-0.40578 0.041,0.008 0.081,0.0183 0.1213,0.0302 z"
       style="display:inline;fill:#00222b;stroke-width:1.354"
       id="path67-1-9-6-4-35" /><path
       d="m 1410.2628,190.15773 c 0.8118,0.29241 0.7697,2.24338 0.3781,3.68622 -1.1289,4.15942 -3.2625,12.25098 -6.3821,14.52133 -0.851,0.61932 -1.9064,0.84058 -1.89,-0.86391 0.014,-1.41277 1.2293,-2.90012 1.8306,-4.00942 1.3672,-2.5224 2.5503,-5.18896 3.2623,-8.10747 0.3622,-1.48496 0.4604,-3.95808 1.6392,-4.85118 0.4328,-0.32795 0.7754,-0.44434 1.0406,-0.40578 0.041,0.008 0.081,0.0183 0.1213,0.0302 z"
       style="display:inline;fill:#00222b;stroke-width:1.354"
       id="path67-7-5-5-4" /><path
       d="m 1421.672,194.98 c 0.8117,0.29241 0.7697,2.24338 0.3781,3.68622 -1.129,4.15942 -3.2626,12.25098 -6.3822,14.52133 -0.851,0.61932 -1.9063,0.84058 -1.8899,-0.86391 0.014,-1.41277 1.2292,-2.90012 1.8305,-4.00942 1.3672,-2.5224 2.5504,-5.18896 3.2623,-8.10747 0.3623,-1.48496 0.4605,-3.95808 1.6392,-4.85118 0.4328,-0.32795 0.7754,-0.44434 1.0406,-0.40578 0.041,0.008 0.081,0.0183 0.1214,0.0302 z"
       style="display:inline;fill:#00222b;stroke-width:1.354"
       id="path67-1-0-2-3-8-5" /><path
       id="path65-9-0-6-6"
       style="display:inline;fill:#00222b;stroke-width:0.229149"
       d="m 1393.7183,181.69338 c -1.8978,0.20971 -3.1924,2.11152 -3.1373,3.94248 -0.022,1.84312 1.3641,3.77788 3.3052,3.8447 1.9386,0.13553 3.5303,-1.70511 3.5866,-3.56312 0.2261,-1.90893 -1.1398,-4.0573 -3.1456,-4.20506 -0.2018,7.4e-4 -0.4106,-0.056 -0.6089,-0.019 z" /></g></svg>
