<?xml version="1.0" encoding="UTF-8" standalone="no"?>
<!-- Created with Inkscape (http://www.inkscape.org/) -->

<svg
   width="906.41565"
   height="259.27951"
   viewBox="0 0 233.6407 66.832748"
   version="1.1"
   id="svg1"
   xml:space="preserve"
   xmlns="http://www.w3.org/2000/svg"
   xmlns:svg="http://www.w3.org/2000/svg"><defs
     id="defs1"><rect
       x="1622.7291"
       y="1123.17"
       width="1149.9919"
       height="643.72729"
       id="rect1" /><rect
       x="3248.655"
       y="1980.5128"
       width="1501.505"
       height="985.65051"
       id="rect128" /><rect
       x="3217.9495"
       y="2084.9119"
       width="1323.4124"
       height="782.99341"
       id="rect127" /><rect
       x="3233.3022"
       y="1891.4666"
       width="1286.5657"
       height="991.79169"
       id="rect126" /><rect
       x="2292.8037"
       y="2162.5308"
       width="1567.6176"
       height="1116.0048"
       id="rect125" /><rect
       x="3725.8059"
       y="2466.5007"
       width="1081.2653"
       height="898.88324"
       id="rect124" /><rect
       x="1470.7994"
       y="322.40906"
       width="1578.269"
       height="546.56012"
       id="rect121" /><rect
       x="1068.8286"
       y="61.326229"
       width="870.31677"
       height="896.49469"
       id="rect42" /><rect
       x="1046.5266"
       y="116.83313"
       width="554.33594"
       height="323.15546"
       id="rect41" /><rect
       x="1056.4698"
       y="27.343924"
       width="522.02039"
       height="350.49939"
       id="rect40" /><rect
       x="35.637646"
       y="71.275291"
       width="64.939713"
       height="62.563869"
       id="rect39" /><rect
       x="1068.8286"
       y="61.326229"
       width="1056.2015"
       height="1166.2666"
       id="rect42-2" /><clipPath
       clipPathUnits="userSpaceOnUse"
       id="clipPath135"><path
         id="path136"
         style="fill:#ff0000;fill-opacity:1;fill-rule:nonzero;stroke:none;stroke-width:1"
         d="m 739.43625,232.29376 c -3.71001,0 -7.42113,3.67117 -7.42278,11.01686 -3e-5,0.14656 2e-4,0.29341 0,0.44 -2.1e-4,0.11342 0,0.22691 -0.003,0.34033 0,0.0948 -0.003,0.2152 -0.003,0.29503 0.01,-0.12223 0.0106,-0.10442 0.006,-0.0357 -0.0911,0.66928 -0.20389,1.33676 -0.19835,2.01527 7e-5,0.4226 5e-5,0.84508 0,1.26768 0,0.28328 0,0.56705 0.004,0.85031 0.005,0.38912 0.0134,0.77824 0.0413,1.16648 0.0506,0.63034 0.13494,1.25804 0.29552,1.8708 0.0178,0.0691 0.0346,0.13852 0.0529,0.20742 0.10494,0.56904 0.24261,1.13289 0.44957,1.67345 0.047,0.23286 0.10354,0.46415 0.16463,0.69374 0.0693,0.39075 0.13788,0.76064 0.0811,0.44153 0.016,0.0894 0.0314,0.17894 0.0478,0.26833 0.006,0.0314 0.0165,0.11403 0.0206,0.12285 v 0 0 0 0 c 0,0 0,-0.003 0,-0.007 1.1e-4,-0.007 0,-0.016 0,-0.0258 0.01,0.0873 0.0168,0.16255 0.0262,0.24266 0,0.1611 -2.4e-4,0.32025 -0.005,0.40577 -0.003,0.14909 -0.006,0.33079 -0.008,0.46668 0.0483,-0.32372 -0.0653,0.44642 -0.078,0.51001 -0.0584,0.41103 -0.14953,1.20554 -0.13543,1.39754 -0.0592,0.45944 -0.142,0.91617 -0.17672,1.37844 -0.11223,0.56997 -0.19469,1.14625 -0.1923,1.72882 -0.11204,0.50109 -0.19631,1.00943 -0.21043,1.52444 -0.0201,0.38623 -0.0539,0.77172 -0.0932,1.1564 -0.12586,1.12053 -0.30578,2.23365 -0.47374,3.3484 -0.19577,1.29784 -0.34814,2.60369 -0.58551,3.89416 -2.65764,14.44867 11.54481,17.4978 14.51078,3.10927 v 0 c 0.3261,-1.58192 0.50635,-3.18946 0.74814,-4.78574 0.20007,-1.29121 0.39479,-2.58348 0.54473,-3.88155 0.0546,-0.49493 0.0978,-0.99102 0.13239,-1.48768 0.12658,-0.55473 0.19169,-1.11993 0.2351,-1.68655 0.01,-0.14285 0.0168,-0.28586 0.0217,-0.42894 0.0693,-0.39657 0.11414,-0.79768 0.14953,-1.19919 0.003,-0.003 0.006,-0.033 0.0121,-0.0715 0.0188,-0.0688 0.0517,-0.14396 0.0272,-0.19332 0.0302,-0.21139 0.0376,-0.27297 0.066,-0.48986 0.0116,-0.099 0.025,-0.19783 0.0347,-0.29702 0.0327,-0.32937 0.0464,-0.51349 0.0639,-0.83121 0.005,-0.0295 0.01,-0.0591 0.0147,-0.0886 0.0222,-0.0928 0.0595,-0.20678 0.0378,-0.24016 0.053,-0.35316 0.0955,-0.70753 0.12937,-1.06327 0.0441,-0.52205 0.0565,-1.04611 0.0639,-1.56973 0.0255,-0.66745 -0.01,-1.33021 -0.0488,-1.99666 -0.0694,-0.60796 -0.16337,-1.21151 -0.27037,-1.81391 -0.085,-0.54179 -0.19381,-1.07941 -0.33932,-1.608 -0.003,-0.006 -0.003,-0.0124 -0.004,-0.0186 -0.0335,-0.14556 -0.0809,-0.35314 -0.14499,-0.63987 -0.0416,-0.15311 -0.0842,-0.30594 -0.12737,-0.45864 -0.01,-0.0345 -0.0386,-0.13795 -0.0297,-0.10321 0.11133,0.43397 0.21758,0.73442 -0.0559,-0.12635 -0.0392,-0.17474 -0.0971,-0.41237 -0.15306,-0.63384 0,-0.0282 -0.003,-0.0505 -0.003,-0.0579 -0.003,-0.22492 -0.003,-0.44966 -0.003,-0.67461 -2.4e-4,-0.23405 0,-0.46826 0,-0.70231 0.0193,-0.12633 0.0556,-0.50207 0.0629,-0.5553 0.0577,-0.42384 0.0916,-0.84971 0.11377,-1.27672 0.0119,-0.27854 0.0157,-0.55747 0.0186,-0.83624 0.003,-0.15414 0.003,-0.30849 0.003,-0.46266 2.3e-4,-0.15484 0,-0.30983 0,-0.46467 0.003,-7.34553 -3.70772,-11.0191 -7.41776,-11.01987 z m 7.07439,15.4814 c -0.0124,-0.0421 0.0255,0.0808 0.0393,0.12586 0,0 2.3e-4,0.003 0,0.003 0.006,0.0268 0.0118,0.0534 0.0175,0.0801 -0.024,-0.09 -0.0441,-0.16314 -0.0574,-0.20843 z m 0.0448,0.39569 c 0.0162,0.0407 0.0139,0.0361 0.003,0.008 0,-0.003 -0.003,-0.005 -0.003,-0.008 z m 0.72444,12.60826 v 0 0 0 c 0.004,0.0124 -0.003,0.15357 -0.0378,0.52006 -0.003,-0.22861 0.0268,-0.50168 0.0362,-0.52006 z" /></clipPath><clipPath
       clipPathUnits="userSpaceOnUse"
       id="clipPath136"><path
         id="path137"
         style="fill:#ff0000;fill-opacity:1;fill-rule:nonzero;stroke:none;stroke-width:1"
         d="m 739.43625,232.29376 c -3.71001,0 -7.42113,3.67117 -7.42278,11.01686 -3e-5,0.14656 2e-4,0.29341 0,0.44 -2.1e-4,0.11342 0,0.22691 -0.003,0.34033 0,0.0948 -0.003,0.2152 -0.003,0.29503 0.01,-0.12223 0.0106,-0.10442 0.006,-0.0357 -0.0911,0.66928 -0.20389,1.33676 -0.19835,2.01527 7e-5,0.4226 5e-5,0.84508 0,1.26768 0,0.28328 0,0.56705 0.004,0.85031 0.005,0.38912 0.0134,0.77824 0.0413,1.16648 0.0506,0.63034 0.13494,1.25804 0.29552,1.8708 0.0178,0.0691 0.0346,0.13852 0.0529,0.20742 0.10494,0.56904 0.24261,1.13289 0.44957,1.67345 0.047,0.23286 0.10354,0.46415 0.16463,0.69374 0.0693,0.39075 0.13788,0.76064 0.0811,0.44153 0.016,0.0894 0.0314,0.17894 0.0478,0.26833 0.006,0.0314 0.0165,0.11403 0.0206,0.12285 v 0 0 0 0 c 0,0 0,-0.003 0,-0.007 1.1e-4,-0.007 0,-0.016 0,-0.0258 0.01,0.0873 0.0168,0.16255 0.0262,0.24266 0,0.1611 -2.4e-4,0.32025 -0.005,0.40577 -0.003,0.14909 -0.006,0.33079 -0.008,0.46668 0.0483,-0.32372 -0.0653,0.44642 -0.078,0.51001 -0.0584,0.41103 -0.14953,1.20554 -0.13543,1.39754 -0.0592,0.45944 -0.142,0.91617 -0.17672,1.37844 -0.11223,0.56997 -0.19469,1.14625 -0.1923,1.72882 -0.11204,0.50109 -0.19631,1.00943 -0.21043,1.52444 -0.0201,0.38623 -0.0539,0.77172 -0.0932,1.1564 -0.12586,1.12053 -0.30578,2.23365 -0.47374,3.3484 -0.19577,1.29784 -0.34814,2.60369 -0.58551,3.89416 -2.65764,14.44867 11.54481,17.4978 14.51078,3.10927 v 0 c 0.3261,-1.58192 0.50635,-3.18946 0.74814,-4.78574 0.20007,-1.29121 0.39479,-2.58348 0.54473,-3.88155 0.0546,-0.49493 0.0978,-0.99102 0.13239,-1.48768 0.12658,-0.55473 0.19169,-1.11993 0.2351,-1.68655 0.01,-0.14285 0.0168,-0.28586 0.0217,-0.42894 0.0693,-0.39657 0.11414,-0.79768 0.14953,-1.19919 0.003,-0.003 0.006,-0.033 0.0121,-0.0715 0.0188,-0.0688 0.0517,-0.14396 0.0272,-0.19332 0.0302,-0.21139 0.0376,-0.27297 0.066,-0.48986 0.0116,-0.099 0.025,-0.19783 0.0347,-0.29702 0.0327,-0.32937 0.0464,-0.51349 0.0639,-0.83121 0.005,-0.0295 0.01,-0.0591 0.0147,-0.0886 0.0222,-0.0928 0.0595,-0.20678 0.0378,-0.24016 0.053,-0.35316 0.0955,-0.70753 0.12937,-1.06327 0.0441,-0.52205 0.0565,-1.04611 0.0639,-1.56973 0.0255,-0.66745 -0.01,-1.33021 -0.0488,-1.99666 -0.0694,-0.60796 -0.16337,-1.21151 -0.27037,-1.81391 -0.085,-0.54179 -0.19381,-1.07941 -0.33932,-1.608 -0.003,-0.006 -0.003,-0.0124 -0.004,-0.0186 -0.0335,-0.14556 -0.0809,-0.35314 -0.14499,-0.63987 -0.0416,-0.15311 -0.0842,-0.30594 -0.12737,-0.45864 -0.01,-0.0345 -0.0386,-0.13795 -0.0297,-0.10321 0.11133,0.43397 0.21758,0.73442 -0.0559,-0.12635 -0.0392,-0.17474 -0.0971,-0.41237 -0.15306,-0.63384 0,-0.0282 -0.003,-0.0505 -0.003,-0.0579 -0.003,-0.22492 -0.003,-0.44966 -0.003,-0.67461 -2.4e-4,-0.23405 0,-0.46826 0,-0.70231 0.0193,-0.12633 0.0556,-0.50207 0.0629,-0.5553 0.0577,-0.42384 0.0916,-0.84971 0.11377,-1.27672 0.0119,-0.27854 0.0157,-0.55747 0.0186,-0.83624 0.003,-0.15414 0.003,-0.30849 0.003,-0.46266 2.3e-4,-0.15484 0,-0.30983 0,-0.46467 0.003,-7.34553 -3.70772,-11.0191 -7.41776,-11.01987 z m 7.07439,15.4814 c -0.0124,-0.0421 0.0255,0.0808 0.0393,0.12586 0,0 2.3e-4,0.003 0,0.003 0.006,0.0268 0.0118,0.0534 0.0175,0.0801 -0.024,-0.09 -0.0441,-0.16314 -0.0574,-0.20843 z m 0.0448,0.39569 c 0.0162,0.0407 0.0139,0.0361 0.003,0.008 0,-0.003 -0.003,-0.005 -0.003,-0.008 z m 0.72444,12.60826 v 0 0 0 c 0.004,0.0124 -0.003,0.15357 -0.0378,0.52006 -0.003,-0.22861 0.0268,-0.50168 0.0362,-0.52006 z" /></clipPath></defs><g
     id="layer7"
     transform="translate(-992.05065,-507.72358)"
     style="display:inline"><path
       id="path62-9-5-2-60"
       style="display:inline;fill:#dbdee3;stroke-width:1.81693"
       d="m 535.86041,476.81065 c -3.22485,0.15729 -6.34436,0.20782 -9.42899,0.78711 -1.66132,0.69839 -1.82635,1.97452 -2.53624,2.98733 -2.41022,4.89813 -2.30952,10.1867 -6.49746,14.79784 -1.26982,1.69144 -3.0681,3.55495 -2.09047,5.47069 0.94273,1.08765 3.52546,0.84893 5.27573,0.65887 9.25008,-1.04035 17.18423,-4.18976 24.08071,-7.62962 5.20917,-2.69803 9.96839,-5.68869 13.96757,-8.96437 1.44747,-1.3053 2.87387,-2.91512 2.06952,-4.47504 -0.98046,-1.4388 -3.77354,-1.9485 -6.16333,-2.34405 -6.01687,-1.04533 -12.38853,-1.4263 -18.67704,-1.28876 z m 2.53222,2.52734 c 6.10909,0.10985 11.95628,1.20381 17.84512,2.00391 -2.91727,4.92101 -9.42132,8.90277 -16.77168,11.9621 -5.55667,2.3211 -11.95745,4.13696 -18.90799,4.67462 2.06672,-5.02521 5.05824,-9.91716 7.04801,-14.95313 0.7747,-1.56062 2.85496,-2.97606 5.78257,-3.3539 1.61524,-0.2828 3.32164,-0.33419 5.00397,-0.3336 z"
       transform="translate(544.74731,56.616871)" /><path
       id="path61-4-7-9-12"
       style="display:inline;fill:#dbdee3;stroke-width:0.309316;stroke-dasharray:none;paint-order:markers stroke fill"
       d="m 567.59375,451.12695 c -7.4222,0.54797 -14.62933,3.30582 -20.6097,7.72003 -3.95417,2.61277 -8.00112,5.31263 -12.77916,6.04451 -4.45856,0.69661 -8.88126,-1.15116 -12.55945,-3.44881 -4.61578,-2.78115 -9.10976,-6.10928 -14.48956,-7.22992 -9.40799,-2.20617 -19.35086,-0.85457 -28.32788,2.46907 -9.93869,3.63162 -18.80356,9.76318 -26.47719,16.97569 -2.22867,2.24037 -4.38838,4.84729 -5.00571,8.02954 -0.32719,2.73586 1.32006,5.20839 3.12309,7.09798 3.53011,3.94304 8.00899,6.84696 12.3291,9.83384 7.99335,5.13808 17.17229,7.91826 26.21945,10.55605 4.88341,1.39845 9.71317,2.96289 14.50452,4.61798 4.68395,1.57259 9.55649,2.7394 14.52199,2.76535 7.49732,0.2004 15.05709,-1.77524 21.41174,-5.78176 7.57219,-4.51643 14.79292,-9.72223 22.84255,-13.33065 4.64329,-1.95381 10.17394,-2.27389 14.75146,0.0438 6.99892,3.30232 11.8492,9.77707 18.75959,13.21739 3.0112,1.52693 6.45107,2.15566 9.80607,1.7603 4.97176,-0.48404 9.51737,-2.85247 13.56986,-5.64852 3.38504,-2.21458 6.72201,-4.55893 10.70923,-5.64279 2.98474,-0.89922 6.24686,-0.66711 9.10341,0.56312 4.1229,1.70091 7.18158,5.07742 10.6962,7.70031 4.9778,3.95824 10.66165,7.4575 17.07932,8.30795 4.18972,0.54836 8.63405,-0.049 12.33279,-2.16146 1.29774,-0.83673 1.97855,-2.39645 1.81445,-3.91797 -0.29221,-4.54795 -2.10105,-8.88134 -4.51517,-12.7012 -1.66537,-2.61299 -3.60489,-5.0467 -5.80875,-7.22615 -1.09235,-1.21149 -2.45152,-2.68892 -2.12725,-4.45742 0.76766,-2.33344 2.75896,-3.9434 4.13909,-5.89568 2.20281,-2.78442 3.48384,-6.13173 4.75935,-9.40705 1.46749,-4.05925 2.49915,-8.34009 2.52002,-12.67112 -0.1432,-1.32449 -1.59732,-2.52422 -2.91165,-1.90238 -1.96024,0.66382 -3.3734,2.26939 -4.97175,3.50413 -3.85646,3.34262 -7.37465,7.33495 -12.17879,9.34111 -2.46711,0.92037 -5.42828,-0.0637 -6.90729,-2.23164 -2.41269,-2.98647 -4.01318,-6.86079 -7.41512,-8.97866 -3.43944,-2.25872 -7.91234,-2.59644 -11.75664,-1.24117 -6.95764,2.26718 -12.3631,7.47303 -19.00867,10.35832 -3.44314,1.58206 -7.40187,2.16665 -11.10324,1.21208 -4.1109,-1.02884 -7.394,-3.89943 -10.52911,-6.59907 -4.18547,-3.79515 -8.80784,-7.21264 -14.05405,-9.38979 -3.61297,-1.50591 -7.52509,-2.42586 -11.45715,-2.25533 z m 0.76563,4.67578 c 5.45302,0.0915 10.83227,2.16576 15.37673,5.1798 5.70953,3.73727 10.13317,9.33066 16.47652,12.10818 4.81832,2.03588 10.38105,1.46893 15.15337,-0.41805 6.72956,-2.59553 11.6894,-8.4237 18.61056,-10.62188 3.14545,-0.97927 6.84469,-0.76319 9.49373,1.35406 3.65944,2.76105 5.36151,7.46527 9.10393,10.23188 1.85799,1.40917 4.3062,2.00486 6.58984,1.46289 3.55252,-0.7623 6.3908,-3.21271 9.14673,-5.42874 2.34274,-1.94433 4.62587,-3.96191 7.03491,-5.82517 -0.74199,5.02585 -2.46362,9.94816 -5.39781,14.1232 -1.76275,2.61462 -3.95113,4.89847 -6.13344,7.15805 -1.17455,1.44214 -1.52531,3.71079 -0.25426,5.20903 1.73123,2.43507 4.28243,4.13256 6.03642,6.55292 2.89939,3.54688 5.29166,7.61101 6.76402,11.861 0.28771,0.88829 0.63196,1.78514 0.77999,2.70127 -0.51931,0.4582 -1.25647,0.64416 -1.86467,0.99138 -4.09042,1.86435 -9.00829,1.78325 -13.01181,-0.27788 -7.95154,-3.64204 -13.81382,-10.56839 -21.68832,-14.33354 -3.38926,-1.62013 -7.32321,-2.29305 -10.99806,-1.31224 -5.73865,1.43555 -10.41922,5.3443 -15.48408,8.12513 -2.70757,1.50168 -5.54758,2.75928 -8.66009,3.19582 -4.60842,0.57316 -9.33541,-1.13582 -12.73084,-4.25593 -4.82964,-4.03234 -9.50563,-8.74563 -15.61045,-10.86102 -5.07289,-1.86374 -10.8364,-1.80448 -15.82255,0.31368 -4.69798,1.90053 -8.73711,5.03334 -13.11969,7.5233 -4.91596,2.93718 -10.02404,5.7299 -15.02701,8.3913 -4.0981,2.11642 -8.69071,3.21687 -13.29775,3.27503 -5.34808,0.355 -10.65973,-0.85129 -15.68273,-2.59667 -6.4281,-1.97132 -13.15164,-2.98924 -19.36773,-5.63682 -9.01502,-3.59099 -17.94973,-7.64825 -26.02398,-13.02738 -1.3602,-0.91764 -2.68968,-1.88103 -3.97352,-2.90283 0.97086,0.007 2.0877,0.11028 2.91993,-0.45703 0.41415,-0.66104 0.47327,-1.68198 -0.0156,-2.32031 -1.3558,-0.88778 -3.00821,-1.18468 -4.47822,-1.84578 -0.48437,-0.19629 -0.97023,-0.38978 -1.44561,-0.60735 0.91188,-2.45828 2.44302,-4.64626 4.20703,-6.53515 2.87641,-3.03513 6.39746,-5.34967 9.84369,-7.67725 6.38771,-4.16887 13.26306,-7.53764 20.68561,-9.41846 7.70481,-1.94246 16.20313,-2.24204 23.71337,0.77938 6.1843,2.53633 11.30679,7.30579 17.86408,8.9932 5.15253,1.29871 10.58373,-0.12709 15.20165,-2.50419 6.61969,-3.33718 12.55337,-8.09903 19.82253,-9.99179 1.719,-0.43595 3.48997,-0.66339 5.26361,-0.67504 z"
       transform="translate(544.74731,56.616871)" /><path
       d="m 499.44135,481.39289 c 0.81175,0.29241 0.76969,2.24338 0.37809,3.68622 -1.12892,4.15942 -3.26258,12.25098 -6.38216,14.52133 -0.85097,0.61932 -1.90634,0.84058 -1.88993,-0.86391 0.0136,-1.41277 1.22923,-2.90012 1.83052,-4.00942 1.36721,-2.5224 2.55038,-5.18896 3.26232,-8.10747 0.36225,-1.48496 0.46045,-3.95808 1.63921,-4.85118 0.43282,-0.32795 0.77543,-0.44434 1.04062,-0.40578 0.041,0.008 0.0813,0.0183 0.12133,0.0302 z"
       style="display:inline;fill:#dbdee3;stroke-width:1.354"
       id="path67-1-9-6-4-3"
       transform="translate(544.74731,56.616871)" /><path
       d="m 493.70276,478.94287 c 0.81175,0.29241 0.76969,2.24338 0.37809,3.68622 -1.12892,4.15942 -3.26258,12.25098 -6.38216,14.52133 -0.85097,0.61932 -1.90634,0.84058 -1.88993,-0.86391 0.0136,-1.41277 1.22923,-2.90012 1.83052,-4.00942 1.36721,-2.5224 2.55038,-5.18896 3.26232,-8.10747 0.36225,-1.48496 0.46045,-3.95808 1.63921,-4.85118 0.43282,-0.32795 0.77543,-0.44434 1.04062,-0.40578 0.041,0.008 0.0813,0.0183 0.12133,0.0302 z"
       style="display:inline;fill:#dbdee3;stroke-width:1.354"
       id="path67-7-5-5-2"
       transform="translate(544.74731,56.616871)" /><path
       d="m 505.11188,483.76514 c 0.81175,0.29241 0.76969,2.24338 0.37809,3.68622 -1.12892,4.15942 -3.26258,12.25098 -6.38216,14.52133 -0.85097,0.61932 -1.90634,0.84058 -1.88993,-0.86391 0.0136,-1.41277 1.22923,-2.90012 1.83052,-4.00942 1.36721,-2.5224 2.55038,-5.18896 3.26232,-8.10747 0.36225,-1.48496 0.46045,-3.95808 1.63921,-4.85118 0.43282,-0.32795 0.77543,-0.44434 1.04062,-0.40578 0.041,0.008 0.0813,0.0183 0.12133,0.0302 z"
       style="display:inline;fill:#dbdee3;stroke-width:1.354"
       id="path67-1-0-2-3-8-1"
       transform="translate(544.74731,56.616871)" /><path
       id="path65-9-0-6-10"
       style="display:inline;fill:#dbdee3;stroke-width:0.229149"
       d="m 477.1582,470.47852 c -1.89775,0.20971 -3.19239,2.11152 -3.13733,3.94248 -0.0224,1.84312 1.36418,3.77788 3.30522,3.8447 1.93862,0.13553 3.53036,-1.70511 3.58661,-3.56312 0.22608,-1.90893 -1.13976,-4.0573 -3.14562,-4.20506 -0.20174,7.4e-4 -0.41055,-0.056 -0.60888,-0.019 z"
       transform="translate(544.74731,56.616871)" /></g></svg>
