<?xml version="1.0" encoding="UTF-8" standalone="no"?>
<!-- Created with Inkscape (http://www.inkscape.org/) -->

<svg
   width="172.11342"
   height="412.04321"
   viewBox="0 0 44.364524 106.20963"
   version="1.1"
   id="svg1"
   xml:space="preserve"
   xmlns="http://www.w3.org/2000/svg"
   xmlns:svg="http://www.w3.org/2000/svg"><defs
     id="defs1"><rect
       x="1622.7291"
       y="1123.17"
       width="1149.9919"
       height="643.72729"
       id="rect1" /><rect
       x="3248.655"
       y="1980.5128"
       width="1501.505"
       height="985.65051"
       id="rect128" /><rect
       x="3217.9495"
       y="2084.9119"
       width="1323.4124"
       height="782.99341"
       id="rect127" /><rect
       x="3233.3022"
       y="1891.4666"
       width="1286.5657"
       height="991.79169"
       id="rect126" /><rect
       x="2292.8037"
       y="2162.5308"
       width="1567.6176"
       height="1116.0048"
       id="rect125" /><rect
       x="3725.8059"
       y="2466.5007"
       width="1081.2653"
       height="898.88324"
       id="rect124" /><rect
       x="1470.7994"
       y="322.40906"
       width="1578.269"
       height="546.56012"
       id="rect121" /><rect
       x="1068.8286"
       y="61.326229"
       width="870.31677"
       height="896.49469"
       id="rect42" /><rect
       x="1046.5266"
       y="116.83313"
       width="554.33594"
       height="323.15546"
       id="rect41" /><rect
       x="1056.4698"
       y="27.343924"
       width="522.02039"
       height="350.49939"
       id="rect40" /><rect
       x="35.637646"
       y="71.275291"
       width="64.939713"
       height="62.563869"
       id="rect39" /><rect
       x="1068.8286"
       y="61.326229"
       width="1056.2015"
       height="1166.2666"
       id="rect42-2" /><clipPath
       clipPathUnits="userSpaceOnUse"
       id="clipPath135"><path
         id="path136"
         style="fill:#ff0000;fill-opacity:1;fill-rule:nonzero;stroke:none;stroke-width:1"
         d="m 739.43625,232.29376 c -3.71001,0 -7.42113,3.67117 -7.42278,11.01686 -3e-5,0.14656 2e-4,0.29341 0,0.44 -2.1e-4,0.11342 0,0.22691 -0.003,0.34033 0,0.0948 -0.003,0.2152 -0.003,0.29503 0.01,-0.12223 0.0106,-0.10442 0.006,-0.0357 -0.0911,0.66928 -0.20389,1.33676 -0.19835,2.01527 7e-5,0.4226 5e-5,0.84508 0,1.26768 0,0.28328 0,0.56705 0.004,0.85031 0.005,0.38912 0.0134,0.77824 0.0413,1.16648 0.0506,0.63034 0.13494,1.25804 0.29552,1.8708 0.0178,0.0691 0.0346,0.13852 0.0529,0.20742 0.10494,0.56904 0.24261,1.13289 0.44957,1.67345 0.047,0.23286 0.10354,0.46415 0.16463,0.69374 0.0693,0.39075 0.13788,0.76064 0.0811,0.44153 0.016,0.0894 0.0314,0.17894 0.0478,0.26833 0.006,0.0314 0.0165,0.11403 0.0206,0.12285 v 0 0 0 0 c 0,0 0,-0.003 0,-0.007 1.1e-4,-0.007 0,-0.016 0,-0.0258 0.01,0.0873 0.0168,0.16255 0.0262,0.24266 0,0.1611 -2.4e-4,0.32025 -0.005,0.40577 -0.003,0.14909 -0.006,0.33079 -0.008,0.46668 0.0483,-0.32372 -0.0653,0.44642 -0.078,0.51001 -0.0584,0.41103 -0.14953,1.20554 -0.13543,1.39754 -0.0592,0.45944 -0.142,0.91617 -0.17672,1.37844 -0.11223,0.56997 -0.19469,1.14625 -0.1923,1.72882 -0.11204,0.50109 -0.19631,1.00943 -0.21043,1.52444 -0.0201,0.38623 -0.0539,0.77172 -0.0932,1.1564 -0.12586,1.12053 -0.30578,2.23365 -0.47374,3.3484 -0.19577,1.29784 -0.34814,2.60369 -0.58551,3.89416 -2.65764,14.44867 11.54481,17.4978 14.51078,3.10927 v 0 c 0.3261,-1.58192 0.50635,-3.18946 0.74814,-4.78574 0.20007,-1.29121 0.39479,-2.58348 0.54473,-3.88155 0.0546,-0.49493 0.0978,-0.99102 0.13239,-1.48768 0.12658,-0.55473 0.19169,-1.11993 0.2351,-1.68655 0.01,-0.14285 0.0168,-0.28586 0.0217,-0.42894 0.0693,-0.39657 0.11414,-0.79768 0.14953,-1.19919 0.003,-0.003 0.006,-0.033 0.0121,-0.0715 0.0188,-0.0688 0.0517,-0.14396 0.0272,-0.19332 0.0302,-0.21139 0.0376,-0.27297 0.066,-0.48986 0.0116,-0.099 0.025,-0.19783 0.0347,-0.29702 0.0327,-0.32937 0.0464,-0.51349 0.0639,-0.83121 0.005,-0.0295 0.01,-0.0591 0.0147,-0.0886 0.0222,-0.0928 0.0595,-0.20678 0.0378,-0.24016 0.053,-0.35316 0.0955,-0.70753 0.12937,-1.06327 0.0441,-0.52205 0.0565,-1.04611 0.0639,-1.56973 0.0255,-0.66745 -0.01,-1.33021 -0.0488,-1.99666 -0.0694,-0.60796 -0.16337,-1.21151 -0.27037,-1.81391 -0.085,-0.54179 -0.19381,-1.07941 -0.33932,-1.608 -0.003,-0.006 -0.003,-0.0124 -0.004,-0.0186 -0.0335,-0.14556 -0.0809,-0.35314 -0.14499,-0.63987 -0.0416,-0.15311 -0.0842,-0.30594 -0.12737,-0.45864 -0.01,-0.0345 -0.0386,-0.13795 -0.0297,-0.10321 0.11133,0.43397 0.21758,0.73442 -0.0559,-0.12635 -0.0392,-0.17474 -0.0971,-0.41237 -0.15306,-0.63384 0,-0.0282 -0.003,-0.0505 -0.003,-0.0579 -0.003,-0.22492 -0.003,-0.44966 -0.003,-0.67461 -2.4e-4,-0.23405 0,-0.46826 0,-0.70231 0.0193,-0.12633 0.0556,-0.50207 0.0629,-0.5553 0.0577,-0.42384 0.0916,-0.84971 0.11377,-1.27672 0.0119,-0.27854 0.0157,-0.55747 0.0186,-0.83624 0.003,-0.15414 0.003,-0.30849 0.003,-0.46266 2.3e-4,-0.15484 0,-0.30983 0,-0.46467 0.003,-7.34553 -3.70772,-11.0191 -7.41776,-11.01987 z m 7.07439,15.4814 c -0.0124,-0.0421 0.0255,0.0808 0.0393,0.12586 0,0 2.3e-4,0.003 0,0.003 0.006,0.0268 0.0118,0.0534 0.0175,0.0801 -0.024,-0.09 -0.0441,-0.16314 -0.0574,-0.20843 z m 0.0448,0.39569 c 0.0162,0.0407 0.0139,0.0361 0.003,0.008 0,-0.003 -0.003,-0.005 -0.003,-0.008 z m 0.72444,12.60826 v 0 0 0 c 0.004,0.0124 -0.003,0.15357 -0.0378,0.52006 -0.003,-0.22861 0.0268,-0.50168 0.0362,-0.52006 z" /></clipPath><clipPath
       clipPathUnits="userSpaceOnUse"
       id="clipPath136"><path
         id="path137"
         style="fill:#ff0000;fill-opacity:1;fill-rule:nonzero;stroke:none;stroke-width:1"
         d="m 739.43625,232.29376 c -3.71001,0 -7.42113,3.67117 -7.42278,11.01686 -3e-5,0.14656 2e-4,0.29341 0,0.44 -2.1e-4,0.11342 0,0.22691 -0.003,0.34033 0,0.0948 -0.003,0.2152 -0.003,0.29503 0.01,-0.12223 0.0106,-0.10442 0.006,-0.0357 -0.0911,0.66928 -0.20389,1.33676 -0.19835,2.01527 7e-5,0.4226 5e-5,0.84508 0,1.26768 0,0.28328 0,0.56705 0.004,0.85031 0.005,0.38912 0.0134,0.77824 0.0413,1.16648 0.0506,0.63034 0.13494,1.25804 0.29552,1.8708 0.0178,0.0691 0.0346,0.13852 0.0529,0.20742 0.10494,0.56904 0.24261,1.13289 0.44957,1.67345 0.047,0.23286 0.10354,0.46415 0.16463,0.69374 0.0693,0.39075 0.13788,0.76064 0.0811,0.44153 0.016,0.0894 0.0314,0.17894 0.0478,0.26833 0.006,0.0314 0.0165,0.11403 0.0206,0.12285 v 0 0 0 0 c 0,0 0,-0.003 0,-0.007 1.1e-4,-0.007 0,-0.016 0,-0.0258 0.01,0.0873 0.0168,0.16255 0.0262,0.24266 0,0.1611 -2.4e-4,0.32025 -0.005,0.40577 -0.003,0.14909 -0.006,0.33079 -0.008,0.46668 0.0483,-0.32372 -0.0653,0.44642 -0.078,0.51001 -0.0584,0.41103 -0.14953,1.20554 -0.13543,1.39754 -0.0592,0.45944 -0.142,0.91617 -0.17672,1.37844 -0.11223,0.56997 -0.19469,1.14625 -0.1923,1.72882 -0.11204,0.50109 -0.19631,1.00943 -0.21043,1.52444 -0.0201,0.38623 -0.0539,0.77172 -0.0932,1.1564 -0.12586,1.12053 -0.30578,2.23365 -0.47374,3.3484 -0.19577,1.29784 -0.34814,2.60369 -0.58551,3.89416 -2.65764,14.44867 11.54481,17.4978 14.51078,3.10927 v 0 c 0.3261,-1.58192 0.50635,-3.18946 0.74814,-4.78574 0.20007,-1.29121 0.39479,-2.58348 0.54473,-3.88155 0.0546,-0.49493 0.0978,-0.99102 0.13239,-1.48768 0.12658,-0.55473 0.19169,-1.11993 0.2351,-1.68655 0.01,-0.14285 0.0168,-0.28586 0.0217,-0.42894 0.0693,-0.39657 0.11414,-0.79768 0.14953,-1.19919 0.003,-0.003 0.006,-0.033 0.0121,-0.0715 0.0188,-0.0688 0.0517,-0.14396 0.0272,-0.19332 0.0302,-0.21139 0.0376,-0.27297 0.066,-0.48986 0.0116,-0.099 0.025,-0.19783 0.0347,-0.29702 0.0327,-0.32937 0.0464,-0.51349 0.0639,-0.83121 0.005,-0.0295 0.01,-0.0591 0.0147,-0.0886 0.0222,-0.0928 0.0595,-0.20678 0.0378,-0.24016 0.053,-0.35316 0.0955,-0.70753 0.12937,-1.06327 0.0441,-0.52205 0.0565,-1.04611 0.0639,-1.56973 0.0255,-0.66745 -0.01,-1.33021 -0.0488,-1.99666 -0.0694,-0.60796 -0.16337,-1.21151 -0.27037,-1.81391 -0.085,-0.54179 -0.19381,-1.07941 -0.33932,-1.608 -0.003,-0.006 -0.003,-0.0124 -0.004,-0.0186 -0.0335,-0.14556 -0.0809,-0.35314 -0.14499,-0.63987 -0.0416,-0.15311 -0.0842,-0.30594 -0.12737,-0.45864 -0.01,-0.0345 -0.0386,-0.13795 -0.0297,-0.10321 0.11133,0.43397 0.21758,0.73442 -0.0559,-0.12635 -0.0392,-0.17474 -0.0971,-0.41237 -0.15306,-0.63384 0,-0.0282 -0.003,-0.0505 -0.003,-0.0579 -0.003,-0.22492 -0.003,-0.44966 -0.003,-0.67461 -2.4e-4,-0.23405 0,-0.46826 0,-0.70231 0.0193,-0.12633 0.0556,-0.50207 0.0629,-0.5553 0.0577,-0.42384 0.0916,-0.84971 0.11377,-1.27672 0.0119,-0.27854 0.0157,-0.55747 0.0186,-0.83624 0.003,-0.15414 0.003,-0.30849 0.003,-0.46266 2.3e-4,-0.15484 0,-0.30983 0,-0.46467 0.003,-7.34553 -3.70772,-11.0191 -7.41776,-11.01987 z m 7.07439,15.4814 c -0.0124,-0.0421 0.0255,0.0808 0.0393,0.12586 0,0 2.3e-4,0.003 0,0.003 0.006,0.0268 0.0118,0.0534 0.0175,0.0801 -0.024,-0.09 -0.0441,-0.16314 -0.0574,-0.20843 z m 0.0448,0.39569 c 0.0162,0.0407 0.0139,0.0361 0.003,0.008 0,-0.003 -0.003,-0.005 -0.003,-0.008 z m 0.72444,12.60826 v 0 0 0 c 0.004,0.0124 -0.003,0.15357 -0.0378,0.52006 -0.003,-0.22861 0.0268,-0.50168 0.0362,-0.52006 z" /></clipPath></defs><g
     id="layer5"
     style="display:inline"
     transform="translate(-825.65281,-9.0421678)"><path
       style="display:inline;fill:#225500;fill-opacity:1;stroke-width:0.135882;stroke-dasharray:none;paint-order:markers stroke fill"
       d="m 656.78767,183.51141 c -0.3536,-0.47106 -0.673,-0.97622 -0.7097,-1.12261 -0.1007,-0.40108 0.286,-1.0808 1.4407,-2.53257 2.5956,-3.26337 3.3241,-4.80845 3.3121,-7.02475 -0.01,-1.45232 -0.2248,-2.33892 -1.2468,-5.09559 -1.0161,-2.74075 -1.1692,-3.44151 -1.1748,-5.37867 -0.015,-5.03067 -0.5526,-6.1524 -4.6396,-9.67505 -2.8389,-2.44679 -3.5605,-3.82693 -4.947,-9.46171 -0.4598,-1.86838 -0.9415,-3.72827 -1.0705,-4.13308 -0.129,-0.40482 -0.7849,-1.8377 -1.4577,-3.18416 -1.1638,-2.32948 -1.7034,-3.64116 -1.5578,-3.7868 0.1348,-0.13475 0.748,0.2961 1.3559,0.9527 0.344,0.37161 1.1467,1.4966 1.7837,2.49991 1.2531,1.97375 2.0334,2.91729 2.7689,3.34835 0.258,0.15115 1.2321,0.55837 2.1647,0.9049 1.8685,0.69426 2.6539,1.15048 3.2524,1.88931 0.5815,0.71769 0.681,0.96228 1.3281,3.26403 0.549,1.95271 0.5995,2.24081 0.7454,4.24631 0.4188,5.75905 0.6718,6.48651 3.1728,9.12477 1.7727,1.86989 2.237,2.53064 2.6954,3.83567 0.3034,0.86398 0.3402,1.11287 0.3439,2.32632 0.01,1.60932 -0.1317,2.27873 -1.0854,5.32206 -0.9218,2.94157 -1.065,3.59673 -1.3946,6.38137 -0.4216,3.56147 -0.8279,4.90823 -1.8789,6.22823 -0.4496,0.56476 -1.4768,1.37855 -2.209,1.75024 l -0.3493,0.17727 z"
       id="path105-7-3"
       transform="translate(203.96713,-114.35851)" /><path
       style="display:inline;fill:#225500;fill-opacity:1;stroke-width:0.135882;stroke-dasharray:none;paint-order:markers stroke fill"
       d="m 653.54727,181.30491 c -0.4025,-0.0575 -0.7592,-0.13218 -0.7927,-0.16603 -0.1419,-0.14365 -0.031,-3.66109 0.1484,-4.68387 0.1035,-0.59167 0.3413,-1.94199 0.5285,-3.00075 0.4438,-2.511 0.5455,-4.59953 0.2939,-6.03633 -0.3599,-2.05527 -1.2598,-3.76094 -2.6361,-4.99609 -0.3631,-0.32589 -1.6407,-1.25222 -2.8391,-2.05845 -2.5224,-1.69709 -3.4197,-2.49007 -4.2795,-3.78237 -1.1968,-1.79857 -1.9014,-3.64915 -3.2118,-8.43484 -0.8366,-3.05514 -1.3325,-4.56981 -2.8732,-8.7757 -1.8782,-5.12746 -2.5735,-8.06421 -2.5735,-10.8706 0,-1.10359 0.1641,-2.66914 0.3555,-3.39165 l 0.1185,-0.44756 0.2157,0.27769 c 0.4169,0.53666 1.4447,2.66813 1.8539,3.84462 0.5364,1.54199 0.9422,3.15945 1.6425,6.54587 0.9691,4.68678 1.4369,6.28839 2.4432,8.36517 0.9075,1.87296 1.9808,3.20848 5.0322,6.2612 4.1747,4.17659 5.031,5.49242 6.2287,9.57111 1.1593,3.94795 1.4015,4.67338 2.1511,6.44321 1.9608,4.62973 1.9879,5.66203 0.3034,11.56352 -0.3381,1.18457 -0.7024,2.54765 -0.8095,3.02905 -0.1497,0.67297 -0.2379,0.87201 -0.3815,0.86126 -0.1027,-0.008 -0.5161,-0.061 -0.9186,-0.11846 z"
       id="path106-0-0"
       transform="translate(203.96713,-114.35851)" /><path
       style="display:inline;fill:#225500;fill-opacity:1;stroke-width:0.135882;stroke-dasharray:none;paint-order:markers stroke fill"
       d="m 640.46057,161.2677 c -3.0341,-1.86883 -5.0813,-3.88171 -6.1473,-6.04429 -0.6044,-1.22618 -1.0522,-2.64187 -1.6584,-5.24293 -0.63,-2.70329 -1.048,-3.96778 -1.7571,-5.31627 -0.3029,-0.57607 -0.5372,-1.04742 -0.5205,-1.04742 0.017,0 0.3061,0.0949 0.6431,0.2108 4.5471,1.56444 9.4489,7.21217 10.4804,12.07523 0.1962,0.92504 0.357,6.05808 0.1898,6.05808 -0.058,0 -0.611,-0.31194 -1.23,-0.6932 z"
       id="path107-0-8"
       transform="translate(203.96713,-114.35851)" /><path
       style="display:inline;fill:#225500;fill-opacity:1;stroke-width:0.135882;stroke-dasharray:none;paint-order:markers stroke fill"
       d="m 647.71157,184.31197 c -1.5168,-0.4159 -2.1346,-0.74104 -2.9284,-1.5414 -1.166,-1.17568 -1.7616,-2.54018 -2.622,-6.00779 -0.8281,-3.33713 -1.3767,-4.57543 -2.5449,-5.74518 -0.8494,-0.85052 -1.755,-1.35756 -4.1059,-2.29902 -2.1078,-0.84404 -2.9475,-1.33258 -3.8362,-2.23187 -1.2794,-1.29459 -1.9353,-2.72842 -2.6607,-5.81622 -0.4471,-1.90312 -0.8753,-3.32674 -1.1822,-3.93117 -0.3105,-0.61126 -1.2305,-1.37641 -2.7411,-2.27966 -1.4309,-0.85565 -2.3645,-1.61007 -2.6317,-2.1266 -0.1883,-0.36425 -0.3491,-1.24276 -0.2275,-1.24276 0.046,0 0.2378,0.13023 0.427,0.28937 0.6342,0.5337 1.4728,0.86464 3.4194,1.34947 1.0639,0.26495 2.2029,0.61786 2.5313,0.78424 1.6129,0.81734 2.4346,2.10804 3.6477,5.72987 1.0293,3.07324 1.526,4.0499 2.591,5.0956 0.7255,0.71228 1.1253,0.98594 2.4787,1.6968 0.8875,0.46617 1.9397,1.08696 2.3381,1.37955 1.4226,1.04459 2.4702,2.82504 3.3868,5.75599 0.2825,0.90304 0.746,2.38897 1.0301,3.30205 0.7389,2.37472 1.4037,3.63407 2.6204,4.96411 1.2998,1.42081 1.6707,1.88636 1.9588,2.45836 0.2505,0.49733 0.2992,0.718 0.1552,0.70393 -0.047,-0.005 -0.5434,-0.13401 -1.1039,-0.28767 z"
       id="path108-6-4"
       transform="translate(203.96713,-114.35851)" /><path
       style="display:inline;fill:#225500;fill-opacity:1;stroke-width:0.135882;stroke-dasharray:none;paint-order:markers stroke fill"
       d="m 649.17627,182.65463 c -0.3425,-0.81695 -0.3427,-2.55273 -8e-4,-4.6104 0.4516,-2.71719 0.3523,-3.93726 -0.4195,-5.15501 -0.1977,-0.31202 -1.4054,-1.63737 -2.6837,-2.94523 -2.3871,-2.44233 -2.8643,-3.07849 -3.169,-4.22415 -0.1291,-0.48516 -0.057,-1.49423 0.1061,-1.49423 0.1452,0 2.7217,1.89183 3.8861,2.85342 1.848,1.52606 3.0828,3.28738 3.5567,5.07304 0.2537,0.95594 0.2495,2.59436 -0.011,4.37086 -0.2141,1.45938 -0.2026,2.46373 0.045,3.95306 0.083,0.49888 0.119,1.03389 0.08,1.18899 -0.068,0.2715 -0.9669,1.45115 -1.1157,1.46443 -0.04,0.004 -0.1634,-0.21008 -0.2744,-0.47478 z"
       id="path109-6-0"
       transform="translate(203.96713,-114.35851)" /><path
       style="display:inline;fill:#225500;fill-opacity:1;stroke-width:0.135882;stroke-dasharray:none;paint-order:markers stroke fill"
       d="m 653.10037,188.27833 c -1.2153,-0.32679 -2.4901,-1.52426 -2.8299,-2.65836 -0.5462,-1.82314 0.6093,-3.22576 2.6498,-3.21653 0.6436,0.003 0.9074,0.0633 1.4031,0.32141 1.6088,0.83755 2.7298,2.94569 2.2843,4.2957 -0.1795,0.54375 -0.7791,1.04912 -1.4983,1.26268 -0.7156,0.21253 -1.2049,0.21131 -2.009,-0.005 z"
       id="path110-2-4"
       transform="translate(203.96713,-114.35851)" /><path
       style="display:inline;fill:#00222b;stroke:none;stroke-width:0.340354"
       d="m 845.09751,39.165174 h -0.089 c -1.5015,-3.78747 -5.5825,-6.63699 -9.1744,-8.35999 -0.5877,-0.28194 -5.0477,-2.61401 -4.9224,-1.5782 0.07,0.57374 1.2251,1.24777 1.6258,1.64287 1.1189,1.10317 2.1415,2.37106 2.7718,3.80202 1.489,3.38084 1.0538,7.17782 3.1717,10.36917 1.9486,2.93633 5.6354,3.8749 7.7107,6.4425 0.6713,0.83063 0.2031,2.84203 0.8174,3.92666 1.4519,2.56328 4.6067,3.91846 5.6281,6.73995 0.7506,2.07345 -0.4184,4.89128 -0.4138,7.08561 h -0.089 c -0.9935,-1.97625 -2.161,-3.75815 -2.8713,-5.87587 -0.9731,-2.90072 -1.401,-6.5774 -4.0763,-8.56154 -1.6052,-1.19046 -3.6793,-1.5647 -5.0362,-3.10406 -2.3481,-2.66385 -2.4456,-6.25891 -4.2712,-9.15914 -1.62,-2.57364 -4.0918,-1.92987 -6.5474,-2.89265 -1.0216,-0.40054 -1.5512,-1.36045 -2.4941,-1.81317 -0.6174,-0.2965 -1.0656,0.14388 -1.1391,0.73097 -0.5049,4.03089 3.2728,3.59527 5.1657,6.04869 2.3414,3.03471 1.5024,7.36047 4.209,10.45557 2.4882,2.84533 6.9349,2.43862 9.0361,5.78945 2.9141,4.64701 1.6841,12.70223 9.3609,12.70223 0.145,1.57512 1.1123,2.85511 2.5831,3.5303 0.5198,0.23864 2.0978,0.26642 2.2815,0.79892 0.7094,2.05658 0.8795,4.73579 0.2872,6.81763 -0.5127,1.80186 -1.5917,3.23367 -1.4946,5.18458 0.1023,2.0559 1.7433,3.50371 2.4262,5.3574 1.0786,2.92743 0.7654,6.214196 -0.09,9.159436 -0.7438,2.56085 -2.4969,5.35079 -2.5191,8.0361 -0.01,0.77113 -0.038,2.32785 0.8125,2.74947 0.4483,0.22232 0.7234,-0.19828 0.6603,-0.58952 -0.5648,-3.50064 0.9279,-6.15551 1.9976,-9.50477 1.0252,-3.21019 1.3985,-6.973996 0.2391,-10.196346 -0.6448,-1.79187 -2.2697,-3.24056 -2.445,-5.18459 -0.1659,-1.84102 1.1848,-3.45033 1.5834,-5.18458 0.5434,-2.36516 0.062,-4.7517 -0.4433,-7.08559 2.5808,-0.0342 3.2307,-1.92971 2.9394,-4.06126 1.7766,-0.45277 3.705,-2.69055 4.4715,-4.23408 1.135,-2.28577 0.7233,-4.83427 1.1476,-7.25842 0.747,-4.26774 3.1611,-8.00016 1.587,-12.44299 -1.0822,-3.05431 -4.4263,-4.35023 -5.1381,-7.60406 -0.8658,-3.95838 -0.024,-9.61822 -2.8993,-12.87504 -1.6154,-1.82969 -4.1221,-1.78612 -6.0272,-3.17919 -1.9798,-1.44766 -2.8062,-3.77994 -4.2683,-5.6346 -0.5126,-0.65025 -1.883,-1.80529 -2.7244,-0.92479 -0.8416,0.88062 0.02,2.64798 0.4683,3.51708 1.6422,3.18616 2.8253,6.31261 3.7729,9.7643 0.5687,2.07184 0.9622,4.85421 2.3558,6.56714 1.7003,2.08984 4.3403,3.21141 5.7104,5.61663 1.4157,2.48525 0.7273,5.04049 1.1394,7.69046 0.4851,3.11991 2.8808,6.27961 2.3081,9.50506 -0.3576,2.01372 -1.8146,3.34183 -2.7053,5.09818 -0.3327,-2.52486 1.1464,-5.41968 1.0664,-8.0361 -0.079,-2.5674 -1.5544,-4.88124 -2.3697,-7.25842 -0.798,-2.32635 -0.9682,-4.73929 -2.0629,-6.99918 -2.0738,-4.28132 -5.8003,-6.6389 -8.6682,-10.28276 -2.469,-3.13699 -3.7686,-7.16227 -4.6221,-10.97403 -0.9363,-4.18121 -0.7921,-8.31404 -3.7341,-11.75172 -0.4499,-0.5258 -2.4757,-3.0865108 -3.2656,-2.5783808 -0.4861,0.31275 0.1639,1.0533998 0.3377,1.3686398 0.7963,1.445001 1.069,2.949081 0.9512,4.579721 -0.1355,1.87456 -0.7158,3.63483 -0.3793,5.53022 0.323,1.81896 1.3609,3.46727 2.0209,5.18458 1.608,4.18377 3.5861,8.99277 4.3364,13.3935 m -4.8099,-26.61418 c 3.9317,5.29701 3.3239,13.07651 6.1748,19.09654 2.1286,4.49476 6.4667,6.86438 9.1715,10.88762 2.0538,3.05477 2.3207,6.18538 3.5111,9.50507 0.8726,2.43374 2.4173,4.85877 2.3393,7.51765 -0.1036,3.5327 -1.6507,6.65907 -2.2243,10.02352 l -2.0487,-0.25923 c -0.7395,-5.49559 2.7236,-10.86621 0.2663,-16.24502 -1.7829,-3.90256 -6.3879,-4.67514 -8.7517,-7.9497 -2.3057,-3.19404 -3.0748,-7.7139 -4.1757,-11.40607 -2.0641,-6.9228 -6.1807,-13.84116 -4.2626,-21.17038 m 21.6445,59.96833 c -0.3251,-0.5941 -1.349,-1.52462 -1.3902,-2.16024 -0.052,-0.79906 1.1858,-2.06973 1.6477,-2.6787 1.3053,-1.72068 2.7624,-3.52236 3.0979,-5.70305 0.4831,-3.1399 -1.4869,-6.10654 -2.2071,-9.07301 -0.4833,-1.99032 -0.01,-4.11142 -0.4016,-6.13509 -0.8343,-4.291 -4.7635,-5.35826 -6.9568,-8.64098 -2.0564,-3.0779 -2.3829,-7.76958 -3.5887,-11.23325 -0.8257,-2.37193 -2.553,-4.4567 -3.0276,-6.91278 2.278,0.51621 3.7644,5.2556 5.7007,6.68237 1.6993,1.25224 4.211,1.26647 5.6444,2.83268 3.167,3.46038 1.6887,9.49701 3.1144,13.64275 0.8984,2.61251 3.6115,3.83948 4.7506,6.30791 1.8298,3.96541 -0.5056,7.83084 -1.3851,11.66531 -0.971,4.23295 0.116,9.17605 -4.9986,11.40608 m -15.5876,-22.2937 c -2.9302,-1.61135 -6.2025,-3.96582 -7.6313,-6.99919 -1.8411,-3.90869 -1.4745,-7.9744 -4.0371,-11.66531 4.8907,1.18104 9.9703,6.97131 11.2327,11.5789 0.629,2.29612 0.4357,4.73316 0.4357,7.0856 m -19.5958,-11.23327 c 2.2197,2.28064 5.4537,1.27117 7.5606,3.2944 2.4817,2.38313 2.4611,6.72053 4.5322,9.49425 1.6319,2.18545 4.4214,2.43728 6.203,4.33039 2.9284,3.11161 2.9286,8.27357 5.0802,11.91463 0.87,1.47226 3.2082,3.0891 3.4346,4.75253 -1.3264,-0.3533 -2.7344,-0.53224 -3.8298,-1.41496 -3.2257,-2.59948 -2.6498,-8.00127 -4.8207,-11.28727 -2.1218,-3.21176 -6.1808,-2.85644 -8.7009,-5.36732 -2.748,-2.73784 -2.3906,-6.38282 -3.8009,-9.66796 -1.0867,-2.53124 -6.2671,-3.00739 -5.6583,-6.04869 m 20.6647,5.96227 c 2.0395,3.37775 6.4013,4.24185 8.529,7.51765 3.1113,4.79019 0.111,10.96009 0.111,16.15861 h -0.089 c -4e-4,-3.86503 1.1657,-7.58022 -0.9816,-11.14685 -1.0751,-1.78566 -2.6283,-3.32662 -4.3627,-4.51648 -0.8376,-0.57459 -2.5777,-1.23118 -3.1042,-2.08244 -0.5407,-0.87413 -0.4067,-4.95246 -0.1024,-5.93049 m 0.089,7.17201 c 3.276,2.41459 7.1441,4.59597 7.7211,8.98661 0.243,1.84907 -0.3213,3.60992 -0.4119,5.44381 -0.047,0.95296 0.5928,2.42949 0.3563,3.27366 -0.1439,0.51354 -0.8184,0.97458 -1.0742,1.47887 h -0.1782 c -1.6421,-3.12302 0.7897,-6.22801 -0.1981,-9.33225 -1.0034,-3.15355 -7.6373,-6.15867 -6.215,-9.8507 m 13.8952,14.86247 -0.089,0.0864 0.089,-0.0864 m -4.2755,3.39723 c 3.3903,-0.41816 6.3969,5.61189 2.0487,6.15659 -4.2198,0.52861 -6.7439,-5.57748 -2.0487,-6.15659 z"
       id="path98-0-5-6" /></g></svg>
