<?xml version="1.0" encoding="UTF-8" standalone="no"?>
<!-- Created with Inkscape (http://www.inkscape.org/) -->

<svg
   width="906.41565"
   height="844.64966"
   viewBox="0 0 233.6407 217.7197"
   version="1.1"
   id="svg1"
   xml:space="preserve"
   xmlns="http://www.w3.org/2000/svg"
   xmlns:svg="http://www.w3.org/2000/svg"><defs
     id="defs1"><rect
       x="1622.7291"
       y="1123.17"
       width="1149.9919"
       height="643.72729"
       id="rect1" /><rect
       x="3248.655"
       y="1980.5128"
       width="1501.505"
       height="985.65051"
       id="rect128" /><rect
       x="3217.9495"
       y="2084.9119"
       width="1323.4124"
       height="782.99341"
       id="rect127" /><rect
       x="3233.3022"
       y="1891.4666"
       width="1286.5657"
       height="991.79169"
       id="rect126" /><rect
       x="2292.8037"
       y="2162.5308"
       width="1567.6176"
       height="1116.0048"
       id="rect125" /><rect
       x="3725.8059"
       y="2466.5007"
       width="1081.2653"
       height="898.88324"
       id="rect124" /><rect
       x="1470.7994"
       y="322.40906"
       width="1578.269"
       height="546.56012"
       id="rect121" /><rect
       x="1068.8286"
       y="61.326229"
       width="870.31677"
       height="896.49469"
       id="rect42" /><rect
       x="1046.5266"
       y="116.83313"
       width="554.33594"
       height="323.15546"
       id="rect41" /><rect
       x="1056.4698"
       y="27.343924"
       width="522.02039"
       height="350.49939"
       id="rect40" /><rect
       x="35.637646"
       y="71.275291"
       width="64.939713"
       height="62.563869"
       id="rect39" /><rect
       x="1068.8286"
       y="61.326229"
       width="1056.2015"
       height="1166.2666"
       id="rect42-2" /><clipPath
       clipPathUnits="userSpaceOnUse"
       id="clipPath135"><path
         id="path136"
         style="fill:#ff0000;fill-opacity:1;fill-rule:nonzero;stroke:none;stroke-width:1"
         d="m 739.43625,232.29376 c -3.71001,0 -7.42113,3.67117 -7.42278,11.01686 -3e-5,0.14656 2e-4,0.29341 0,0.44 -2.1e-4,0.11342 0,0.22691 -0.003,0.34033 0,0.0948 -0.003,0.2152 -0.003,0.29503 0.01,-0.12223 0.0106,-0.10442 0.006,-0.0357 -0.0911,0.66928 -0.20389,1.33676 -0.19835,2.01527 7e-5,0.4226 5e-5,0.84508 0,1.26768 0,0.28328 0,0.56705 0.004,0.85031 0.005,0.38912 0.0134,0.77824 0.0413,1.16648 0.0506,0.63034 0.13494,1.25804 0.29552,1.8708 0.0178,0.0691 0.0346,0.13852 0.0529,0.20742 0.10494,0.56904 0.24261,1.13289 0.44957,1.67345 0.047,0.23286 0.10354,0.46415 0.16463,0.69374 0.0693,0.39075 0.13788,0.76064 0.0811,0.44153 0.016,0.0894 0.0314,0.17894 0.0478,0.26833 0.006,0.0314 0.0165,0.11403 0.0206,0.12285 v 0 0 0 0 c 0,0 0,-0.003 0,-0.007 1.1e-4,-0.007 0,-0.016 0,-0.0258 0.01,0.0873 0.0168,0.16255 0.0262,0.24266 0,0.1611 -2.4e-4,0.32025 -0.005,0.40577 -0.003,0.14909 -0.006,0.33079 -0.008,0.46668 0.0483,-0.32372 -0.0653,0.44642 -0.078,0.51001 -0.0584,0.41103 -0.14953,1.20554 -0.13543,1.39754 -0.0592,0.45944 -0.142,0.91617 -0.17672,1.37844 -0.11223,0.56997 -0.19469,1.14625 -0.1923,1.72882 -0.11204,0.50109 -0.19631,1.00943 -0.21043,1.52444 -0.0201,0.38623 -0.0539,0.77172 -0.0932,1.1564 -0.12586,1.12053 -0.30578,2.23365 -0.47374,3.3484 -0.19577,1.29784 -0.34814,2.60369 -0.58551,3.89416 -2.65764,14.44867 11.54481,17.4978 14.51078,3.10927 v 0 c 0.3261,-1.58192 0.50635,-3.18946 0.74814,-4.78574 0.20007,-1.29121 0.39479,-2.58348 0.54473,-3.88155 0.0546,-0.49493 0.0978,-0.99102 0.13239,-1.48768 0.12658,-0.55473 0.19169,-1.11993 0.2351,-1.68655 0.01,-0.14285 0.0168,-0.28586 0.0217,-0.42894 0.0693,-0.39657 0.11414,-0.79768 0.14953,-1.19919 0.003,-0.003 0.006,-0.033 0.0121,-0.0715 0.0188,-0.0688 0.0517,-0.14396 0.0272,-0.19332 0.0302,-0.21139 0.0376,-0.27297 0.066,-0.48986 0.0116,-0.099 0.025,-0.19783 0.0347,-0.29702 0.0327,-0.32937 0.0464,-0.51349 0.0639,-0.83121 0.005,-0.0295 0.01,-0.0591 0.0147,-0.0886 0.0222,-0.0928 0.0595,-0.20678 0.0378,-0.24016 0.053,-0.35316 0.0955,-0.70753 0.12937,-1.06327 0.0441,-0.52205 0.0565,-1.04611 0.0639,-1.56973 0.0255,-0.66745 -0.01,-1.33021 -0.0488,-1.99666 -0.0694,-0.60796 -0.16337,-1.21151 -0.27037,-1.81391 -0.085,-0.54179 -0.19381,-1.07941 -0.33932,-1.608 -0.003,-0.006 -0.003,-0.0124 -0.004,-0.0186 -0.0335,-0.14556 -0.0809,-0.35314 -0.14499,-0.63987 -0.0416,-0.15311 -0.0842,-0.30594 -0.12737,-0.45864 -0.01,-0.0345 -0.0386,-0.13795 -0.0297,-0.10321 0.11133,0.43397 0.21758,0.73442 -0.0559,-0.12635 -0.0392,-0.17474 -0.0971,-0.41237 -0.15306,-0.63384 0,-0.0282 -0.003,-0.0505 -0.003,-0.0579 -0.003,-0.22492 -0.003,-0.44966 -0.003,-0.67461 -2.4e-4,-0.23405 0,-0.46826 0,-0.70231 0.0193,-0.12633 0.0556,-0.50207 0.0629,-0.5553 0.0577,-0.42384 0.0916,-0.84971 0.11377,-1.27672 0.0119,-0.27854 0.0157,-0.55747 0.0186,-0.83624 0.003,-0.15414 0.003,-0.30849 0.003,-0.46266 2.3e-4,-0.15484 0,-0.30983 0,-0.46467 0.003,-7.34553 -3.70772,-11.0191 -7.41776,-11.01987 z m 7.07439,15.4814 c -0.0124,-0.0421 0.0255,0.0808 0.0393,0.12586 0,0 2.3e-4,0.003 0,0.003 0.006,0.0268 0.0118,0.0534 0.0175,0.0801 -0.024,-0.09 -0.0441,-0.16314 -0.0574,-0.20843 z m 0.0448,0.39569 c 0.0162,0.0407 0.0139,0.0361 0.003,0.008 0,-0.003 -0.003,-0.005 -0.003,-0.008 z m 0.72444,12.60826 v 0 0 0 c 0.004,0.0124 -0.003,0.15357 -0.0378,0.52006 -0.003,-0.22861 0.0268,-0.50168 0.0362,-0.52006 z" /></clipPath><clipPath
       clipPathUnits="userSpaceOnUse"
       id="clipPath136"><path
         id="path137"
         style="fill:#ff0000;fill-opacity:1;fill-rule:nonzero;stroke:none;stroke-width:1"
         d="m 739.43625,232.29376 c -3.71001,0 -7.42113,3.67117 -7.42278,11.01686 -3e-5,0.14656 2e-4,0.29341 0,0.44 -2.1e-4,0.11342 0,0.22691 -0.003,0.34033 0,0.0948 -0.003,0.2152 -0.003,0.29503 0.01,-0.12223 0.0106,-0.10442 0.006,-0.0357 -0.0911,0.66928 -0.20389,1.33676 -0.19835,2.01527 7e-5,0.4226 5e-5,0.84508 0,1.26768 0,0.28328 0,0.56705 0.004,0.85031 0.005,0.38912 0.0134,0.77824 0.0413,1.16648 0.0506,0.63034 0.13494,1.25804 0.29552,1.8708 0.0178,0.0691 0.0346,0.13852 0.0529,0.20742 0.10494,0.56904 0.24261,1.13289 0.44957,1.67345 0.047,0.23286 0.10354,0.46415 0.16463,0.69374 0.0693,0.39075 0.13788,0.76064 0.0811,0.44153 0.016,0.0894 0.0314,0.17894 0.0478,0.26833 0.006,0.0314 0.0165,0.11403 0.0206,0.12285 v 0 0 0 0 c 0,0 0,-0.003 0,-0.007 1.1e-4,-0.007 0,-0.016 0,-0.0258 0.01,0.0873 0.0168,0.16255 0.0262,0.24266 0,0.1611 -2.4e-4,0.32025 -0.005,0.40577 -0.003,0.14909 -0.006,0.33079 -0.008,0.46668 0.0483,-0.32372 -0.0653,0.44642 -0.078,0.51001 -0.0584,0.41103 -0.14953,1.20554 -0.13543,1.39754 -0.0592,0.45944 -0.142,0.91617 -0.17672,1.37844 -0.11223,0.56997 -0.19469,1.14625 -0.1923,1.72882 -0.11204,0.50109 -0.19631,1.00943 -0.21043,1.52444 -0.0201,0.38623 -0.0539,0.77172 -0.0932,1.1564 -0.12586,1.12053 -0.30578,2.23365 -0.47374,3.3484 -0.19577,1.29784 -0.34814,2.60369 -0.58551,3.89416 -2.65764,14.44867 11.54481,17.4978 14.51078,3.10927 v 0 c 0.3261,-1.58192 0.50635,-3.18946 0.74814,-4.78574 0.20007,-1.29121 0.39479,-2.58348 0.54473,-3.88155 0.0546,-0.49493 0.0978,-0.99102 0.13239,-1.48768 0.12658,-0.55473 0.19169,-1.11993 0.2351,-1.68655 0.01,-0.14285 0.0168,-0.28586 0.0217,-0.42894 0.0693,-0.39657 0.11414,-0.79768 0.14953,-1.19919 0.003,-0.003 0.006,-0.033 0.0121,-0.0715 0.0188,-0.0688 0.0517,-0.14396 0.0272,-0.19332 0.0302,-0.21139 0.0376,-0.27297 0.066,-0.48986 0.0116,-0.099 0.025,-0.19783 0.0347,-0.29702 0.0327,-0.32937 0.0464,-0.51349 0.0639,-0.83121 0.005,-0.0295 0.01,-0.0591 0.0147,-0.0886 0.0222,-0.0928 0.0595,-0.20678 0.0378,-0.24016 0.053,-0.35316 0.0955,-0.70753 0.12937,-1.06327 0.0441,-0.52205 0.0565,-1.04611 0.0639,-1.56973 0.0255,-0.66745 -0.01,-1.33021 -0.0488,-1.99666 -0.0694,-0.60796 -0.16337,-1.21151 -0.27037,-1.81391 -0.085,-0.54179 -0.19381,-1.07941 -0.33932,-1.608 -0.003,-0.006 -0.003,-0.0124 -0.004,-0.0186 -0.0335,-0.14556 -0.0809,-0.35314 -0.14499,-0.63987 -0.0416,-0.15311 -0.0842,-0.30594 -0.12737,-0.45864 -0.01,-0.0345 -0.0386,-0.13795 -0.0297,-0.10321 0.11133,0.43397 0.21758,0.73442 -0.0559,-0.12635 -0.0392,-0.17474 -0.0971,-0.41237 -0.15306,-0.63384 0,-0.0282 -0.003,-0.0505 -0.003,-0.0579 -0.003,-0.22492 -0.003,-0.44966 -0.003,-0.67461 -2.4e-4,-0.23405 0,-0.46826 0,-0.70231 0.0193,-0.12633 0.0556,-0.50207 0.0629,-0.5553 0.0577,-0.42384 0.0916,-0.84971 0.11377,-1.27672 0.0119,-0.27854 0.0157,-0.55747 0.0186,-0.83624 0.003,-0.15414 0.003,-0.30849 0.003,-0.46266 2.3e-4,-0.15484 0,-0.30983 0,-0.46467 0.003,-7.34553 -3.70772,-11.0191 -7.41776,-11.01987 z m 7.07439,15.4814 c -0.0124,-0.0421 0.0255,0.0808 0.0393,0.12586 0,0 2.3e-4,0.003 0,0.003 0.006,0.0268 0.0118,0.0534 0.0175,0.0801 -0.024,-0.09 -0.0441,-0.16314 -0.0574,-0.20843 z m 0.0448,0.39569 c 0.0162,0.0407 0.0139,0.0361 0.003,0.008 0,-0.003 -0.003,-0.005 -0.003,-0.008 z m 0.72444,12.60826 v 0 0 0 c 0.004,0.0124 -0.003,0.15357 -0.0378,0.52006 -0.003,-0.22861 0.0268,-0.50168 0.0362,-0.52006 z" /></clipPath></defs><g
     id="layer9"
     style="display:inline"
     transform="translate(-965.53285,-435.45403)"><g
       id="g5-2-2-0-0"
       style="display:inline;fill:#dbdee3"
       transform="translate(518.22951,135.23427)"><path
         id="path61-4-7-9-1-6"
         style="display:inline;fill:#dbdee3;stroke-width:0.309316;stroke-dasharray:none;paint-order:markers stroke fill"
         d="m 567.59375,451.12695 c -7.4222,0.54797 -14.62933,3.30582 -20.6097,7.72003 -3.95417,2.61277 -8.00112,5.31263 -12.77916,6.04451 -4.45856,0.69661 -8.88126,-1.15116 -12.55945,-3.44881 -4.61578,-2.78115 -9.10976,-6.10928 -14.48956,-7.22992 -9.40799,-2.20617 -19.35086,-0.85457 -28.32788,2.46907 -9.93869,3.63162 -18.80356,9.76318 -26.47719,16.97569 -2.22867,2.24037 -4.38838,4.84729 -5.00571,8.02954 -0.32719,2.73586 1.32006,5.20839 3.12309,7.09798 3.53011,3.94304 8.00899,6.84696 12.3291,9.83384 7.99335,5.13808 17.17229,7.91826 26.21945,10.55605 4.88341,1.39845 9.71317,2.96289 14.50452,4.61798 4.68395,1.57259 9.55649,2.7394 14.52199,2.76535 7.49732,0.2004 15.05709,-1.77524 21.41174,-5.78176 7.57219,-4.51643 14.79292,-9.72223 22.84255,-13.33065 4.64329,-1.95381 10.17394,-2.27389 14.75146,0.0438 6.99892,3.30232 11.8492,9.77707 18.75959,13.21739 3.0112,1.52693 6.45107,2.15566 9.80607,1.7603 4.97176,-0.48404 9.51737,-2.85247 13.56986,-5.64852 3.38504,-2.21458 6.72201,-4.55893 10.70923,-5.64279 2.98474,-0.89922 6.24686,-0.66711 9.10341,0.56312 4.1229,1.70091 7.18158,5.07742 10.6962,7.70031 4.9778,3.95824 10.66165,7.4575 17.07932,8.30795 4.18972,0.54836 8.63405,-0.049 12.33279,-2.16146 1.29774,-0.83673 1.97855,-2.39645 1.81445,-3.91797 -0.29221,-4.54795 -2.10105,-8.88134 -4.51517,-12.7012 -1.66537,-2.61299 -3.60489,-5.0467 -5.80875,-7.22615 -1.09235,-1.21149 -2.45152,-2.68892 -2.12725,-4.45742 0.76766,-2.33344 2.75896,-3.9434 4.13909,-5.89568 2.20281,-2.78442 3.48384,-6.13173 4.75935,-9.40705 1.46749,-4.05925 2.49915,-8.34009 2.52002,-12.67112 -0.1432,-1.32449 -1.59732,-2.52422 -2.91165,-1.90238 -1.96024,0.66382 -3.3734,2.26939 -4.97175,3.50413 -3.85646,3.34262 -7.37465,7.33495 -12.17879,9.34111 -2.46711,0.92037 -5.42828,-0.0637 -6.90729,-2.23164 -2.41269,-2.98647 -4.01318,-6.86079 -7.41512,-8.97866 -3.43944,-2.25872 -7.91234,-2.59644 -11.75664,-1.24117 -6.95764,2.26718 -12.3631,7.47303 -19.00867,10.35832 -3.44314,1.58206 -7.40187,2.16665 -11.10324,1.21208 -4.1109,-1.02884 -7.394,-3.89943 -10.52911,-6.59907 -4.18547,-3.79515 -8.80784,-7.21264 -14.05405,-9.38979 -3.61297,-1.50591 -7.52509,-2.42586 -11.45715,-2.25533 z m 0.76563,4.67578 c 5.45302,0.0915 10.83227,2.16576 15.37673,5.1798 5.70953,3.73727 10.13317,9.33066 16.47652,12.10818 4.81832,2.03588 10.38105,1.46893 15.15337,-0.41805 6.72956,-2.59553 11.6894,-8.4237 18.61056,-10.62188 3.14545,-0.97927 6.84469,-0.76319 9.49373,1.35406 3.65944,2.76105 5.36151,7.46527 9.10393,10.23188 1.85799,1.40917 4.3062,2.00486 6.58984,1.46289 3.55252,-0.7623 6.3908,-3.21271 9.14673,-5.42874 2.34274,-1.94433 4.62587,-3.96191 7.03491,-5.82517 -0.74199,5.02585 -2.46362,9.94816 -5.39781,14.1232 -1.76275,2.61462 -3.95113,4.89847 -6.13344,7.15805 -1.17455,1.44214 -1.52531,3.71079 -0.25426,5.20903 1.73123,2.43507 4.28243,4.13256 6.03642,6.55292 2.89939,3.54688 5.29166,7.61101 6.76402,11.861 0.28771,0.88829 0.63196,1.78514 0.77999,2.70127 -0.51931,0.4582 -1.25647,0.64416 -1.86467,0.99138 -4.09042,1.86435 -9.00829,1.78325 -13.01181,-0.27788 -7.95154,-3.64204 -13.81382,-10.56839 -21.68832,-14.33354 -3.38926,-1.62013 -7.32321,-2.29305 -10.99806,-1.31224 -5.73865,1.43555 -10.41922,5.3443 -15.48408,8.12513 -2.70757,1.50168 -5.54758,2.75928 -8.66009,3.19582 -4.60842,0.57316 -9.33541,-1.13582 -12.73084,-4.25593 -4.82964,-4.03234 -9.50563,-8.74563 -15.61045,-10.86102 -5.07289,-1.86374 -10.8364,-1.80448 -15.82255,0.31368 -4.69798,1.90053 -8.73711,5.03334 -13.11969,7.5233 -4.91596,2.93718 -10.02404,5.7299 -15.02701,8.3913 -4.0981,2.11642 -8.69071,3.21687 -13.29775,3.27503 -5.34808,0.355 -10.65973,-0.85129 -15.68273,-2.59667 -6.4281,-1.97132 -13.15164,-2.98924 -19.36773,-5.63682 -9.01502,-3.59099 -17.94973,-7.64825 -26.02398,-13.02738 -1.3602,-0.91764 -2.68968,-1.88103 -3.97352,-2.90283 0.97086,0.007 2.0877,0.11028 2.91993,-0.45703 0.41415,-0.66104 0.47327,-1.68198 -0.0156,-2.32031 -1.3558,-0.88778 -3.00821,-1.18468 -4.47822,-1.84578 -0.48437,-0.19629 -0.97023,-0.38978 -1.44561,-0.60735 0.91188,-2.45828 2.44302,-4.64626 4.20703,-6.53515 2.87641,-3.03513 6.39746,-5.34967 9.84369,-7.67725 6.38771,-4.16887 13.26306,-7.53764 20.68561,-9.41846 7.70481,-1.94246 16.20313,-2.24204 23.71337,0.77938 6.1843,2.53633 11.30679,7.30579 17.86408,8.9932 5.15253,1.29871 10.58373,-0.12709 15.20165,-2.50419 6.61969,-3.33718 12.55337,-8.09903 19.82253,-9.99179 1.719,-0.43595 3.48997,-0.66339 5.26361,-0.67504 z" /><path
         id="path62-9-5-2-9-0"
         style="display:inline;fill:#dbdee3;stroke-width:1.81693"
         d="m 535.87891,476.81055 c -3.25471,0.19257 -6.50098,0.13927 -9.68778,0.89645 -1.44058,0.71358 -1.96761,2.3901 -2.66873,3.72218 -1.83638,4.17722 -2.26882,8.99033 -5.11171,12.70401 -1.19145,1.66544 -2.88182,3.11988 -3.35405,5.18712 -0.18296,0.91324 0.28139,2.01686 1.30274,2.12696 2.20976,0.545 4.49074,-0.0167 6.70143,-0.2774 3.61769,-0.55828 7.27748,-1.50087 10.72094,-2.67174 6.98382,-2.39521 13.59734,-5.75431 19.73065,-9.8067 2.11036,-1.44449 4.32765,-2.95821 6.16372,-4.80821 0.86102,-0.89819 1.74671,-2.36882 0.91177,-3.55705 -1.14018,-1.37184 -3.10799,-1.61395 -4.71354,-1.97731 -6.59646,-1.27152 -13.28885,-1.65759 -19.99544,-1.53831 z m 2.50781,2.52734 c 6.01923,0.11999 11.959,1.19055 17.9082,2.01563 -2.06211,3.12118 -4.9494,5.6001 -8.12109,7.54101 -6.475,3.92406 -13.65088,6.70137 -21.07359,8.18887 -2.17256,0.43399 -4.37251,0.70182 -6.5768,0.91269 2.23783,-5.15703 5.06715,-10.0381 7.22656,-15.22851 1.48667,-2.32345 4.38943,-3.05474 6.97225,-3.27207 1.21609,-0.13327 2.44218,-0.14809 3.66447,-0.15762 z" /><path
         id="path67-1-9-6-4-5-4"
         style="display:inline;fill:#dbdee3;stroke-width:1.354"
         d="m 499.02148,481.39062 c -1.4788,0.43705 -1.83657,2.18037 -2.03515,3.50586 -0.72064,4.3054 -2.61421,8.30272 -4.88474,11.99366 -0.45968,0.90241 -0.9286,2.20187 -0.1387,3.05127 0.91493,0.3781 1.75261,-0.54114 2.32422,-1.14453 1.94295,-2.27114 2.87884,-5.15924 3.85142,-7.96882 0.73073,-2.37435 1.5591,-4.74773 1.9199,-7.21089 0.0566,-0.77036 0.12321,-1.94809 -0.76155,-2.25584 -0.0936,-0.0154 -0.18356,0.0201 -0.2754,0.0293 z" /><path
         id="path67-7-5-5-7-9"
         style="display:inline;fill:#dbdee3;stroke-width:1.354"
         d="m 493.2832,478.94141 c -1.48388,0.4433 -1.83867,2.18682 -2.03711,3.51757 -0.73089,4.27528 -2.58261,8.26934 -4.8608,11.9275 -0.47033,0.91992 -0.96559,2.27233 -0.14506,3.12524 1.03182,0.33187 1.87711,-0.70029 2.49415,-1.38281 1.97302,-2.45778 2.90432,-5.54112 3.9047,-8.48017 0.64332,-2.16802 1.39366,-4.33312 1.68977,-6.58041 0.047,-0.7412 0.084,-1.86826 -0.7683,-2.15622 -0.0941,-0.0151 -0.18482,0.0206 -0.27735,0.0293 z" /><path
         id="path67-1-0-2-3-8-6-9"
         style="display:inline;fill:#dbdee3;stroke-width:1.354"
         d="m 504.67773,483.76758 c -1.52811,0.4784 -1.83836,2.28737 -2.04706,3.66237 -0.72822,4.10772 -2.4892,7.94931 -4.65298,11.48833 -0.57884,0.97218 -1.18165,2.36359 -0.38199,3.38055 0.96183,0.41532 1.82896,-0.55921 2.41901,-1.1953 2.17932,-2.65508 3.16935,-6.02309 4.21769,-9.23443 0.58598,-2.09274 1.38063,-4.17166 1.52127,-6.35422 0.0377,-0.65198 -0.10217,-1.82009 -0.96749,-1.76572 l -0.0986,0.0167 z" /><path
         id="path65-9-0-6-8-4"
         style="display:inline;fill:#dbdee3;stroke-width:0.229149"
         d="m 477.1582,470.47852 c -1.89775,0.20971 -3.19239,2.11152 -3.13733,3.94248 -0.0224,1.84312 1.36418,3.77788 3.30522,3.8447 1.93862,0.13553 3.53036,-1.70511 3.58661,-3.56312 0.22608,-1.90893 -1.13976,-4.0573 -3.14562,-4.20506 -0.20174,7.4e-4 -0.41055,-0.056 -0.60888,-0.019 z" /></g><g
       id="g8-1-4-5"
       transform="translate(805.33683,80.426111)"
       style="fill:#dbdee3"><text
         xml:space="preserve"
         style="font-style:normal;font-variant:normal;font-weight:normal;font-stretch:normal;font-size:49.4906px;line-height:1.2;font-family:'Lucida Grande';-inkscape-font-specification:'Lucida Grande, Normal';font-variant-ligatures:normal;font-variant-caps:normal;font-variant-numeric:normal;font-variant-east-asian:normal;text-align:start;letter-spacing:-3.73757px;word-spacing:0.00257763px;writing-mode:lr-tb;direction:ltr;text-anchor:start;display:inline;fill:#dbdee3;stroke-width:0.257763"
         x="169.06462"
         y="392.62918"
         id="text59-7-1-6-4-7-0-7-2-8-0"><tspan
           style="font-style:normal;font-variant:normal;font-weight:bold;font-stretch:normal;font-size:49.4906px;line-height:1.2;font-family:'Open Sans SemiCondensed';-inkscape-font-specification:'Open Sans SemiCondensed, ';font-variant-ligatures:normal;font-variant-caps:normal;font-variant-numeric:normal;font-variant-east-asian:normal;letter-spacing:-3.73757px;fill:#dbdee3;stroke-width:0.257763"
           x="169.06462"
           y="392.62918"
           id="tspan61-9-0-0-4-9-2-0-6-6-6">Weird</tspan></text><text
         xml:space="preserve"
         style="font-style:normal;font-variant:normal;font-weight:normal;font-stretch:normal;font-size:49.4906px;line-height:1.2;font-family:'Lucida Grande';-inkscape-font-specification:'Lucida Grande, Normal';font-variant-ligatures:normal;font-variant-caps:normal;font-variant-numeric:normal;font-variant-east-asian:normal;text-align:start;letter-spacing:-3.73757px;word-spacing:0.00257763px;writing-mode:lr-tb;direction:ltr;text-anchor:start;display:inline;fill:#dbdee3;stroke-width:0.257763"
         x="169.06462"
         y="438.78635"
         id="text59-7-1-7-0-5-5-2-9-6-1-9"><tspan
           style="font-style:normal;font-variant:normal;font-weight:bold;font-stretch:normal;font-size:49.4906px;line-height:1.2;font-family:'Open Sans SemiCondensed';-inkscape-font-specification:'Open Sans SemiCondensed, ';font-variant-ligatures:normal;font-variant-caps:normal;font-variant-numeric:normal;font-variant-east-asian:normal;letter-spacing:-3.73757px;fill:#dbdee3;stroke-width:0.257763"
           x="169.06462"
           y="438.78635"
           id="tspan61-9-0-5-3-7-1-4-3-5-5-0">Fishes</tspan></text><text
         xml:space="preserve"
         style="font-style:normal;font-variant:normal;font-weight:normal;font-stretch:normal;font-size:49.4906px;line-height:1.5;font-family:'Lucida Grande';-inkscape-font-specification:'Lucida Grande, Normal';font-variant-ligatures:normal;font-variant-caps:normal;font-variant-numeric:normal;font-variant-east-asian:normal;text-align:start;letter-spacing:-3.35092px;word-spacing:0.00257763px;writing-mode:lr-tb;direction:ltr;text-anchor:start;white-space:pre;inline-size:243.922;display:inline;fill:#dbdee3;stroke-width:0.257763"
         x="440.33508"
         y="245.63272"
         id="text59-7-1-7-2-9-7-79-5-8-4-0-8"
         transform="translate(-271.27128,239.31079)"><tspan
           x="440.33508"
           y="245.63272"
           id="tspan3"><tspan
             style="font-weight:600;font-stretch:semi-condensed;font-family:'Open Sans SemiCondensed';-inkscape-font-specification:'Open Sans SemiCondensed,  Semi-Bold Semi-Condensed'"
             id="tspan1">Adviso</tspan><tspan
             dx="-2.0621035"
             style="font-weight:600;font-stretch:semi-condensed;font-family:'Open Sans SemiCondensed';-inkscape-font-specification:'Open Sans SemiCondensed,  Semi-Bold Semi-Condensed';letter-spacing:-1.28882px"
             id="tspan2">ry</tspan></tspan></text></g></g></svg>
